<?xml version="1.0" encoding="utf-8"?>
<!-- Generator: Adobe Illustrator 19.1.0, SVG Export Plug-In . SVG Version: 6.00 Build 0)  -->
<svg version="1.2" baseProfile="tiny" id="Layer_1" xmlns="http://www.w3.org/2000/svg" xmlns:xlink="http://www.w3.org/1999/xlink"
	 x="0px" y="0px" viewBox="0 0 103.7 78.3" xml:space="preserve">
<g>
	<g>
		
			<circle fill="#F0F2F5" stroke="#3F4040" stroke-width="5" stroke-linejoin="round" stroke-miterlimit="10" cx="51.8" cy="20" r="17.5"/>
		<circle fill="#3F4040" cx="73" cy="19.6" r="3.5"/>
	</g>
	<g>
		<g>
			<path fill="#3F4040" d="M30,64.7c0-4.1-3.3-7.5-7.3-7.5H7.4c-4.1,0-7.3,3.4-7.3,7.5l0,10c0,2,1.6,3.5,3.5,3.5h22.9
				c2,0,3.5-1.6,3.5-3.5L30,64.7z"/>
		</g>
		<circle fill="#3F4040" cx="14.9" cy="48.2" r="7.5"/>
	</g>
	<g>
		<g>
			<path fill="#3F4040" d="M103.6,36.3c0-4.1-3.3-7.5-7.3-7.5H81c-4.1,0-7.3,3.4-7.3,7.5l0,10c0,2,1.6,3.5,3.5,3.5h22.9
				c2,0,3.5-1.6,3.5-3.5L103.6,36.3z"/>
		</g>
		<circle fill="#3F4040" cx="88.6" cy="19.8" r="7.5"/>
	</g>
	<g>
		<circle fill="#F0F2F5" stroke="#3F4040" stroke-width="5" stroke-miterlimit="10" cx="52" cy="48" r="17.5"/>
		<circle fill="#3F4040" cx="30.8" cy="48.4" r="3.5"/>
	</g>
	<g>
		<path fill="#3F4040" d="M49.8,54.8c0,0,0.2,1,1.6,1.1c0,0.2,0.2,0.4,0.4,0.4c0.2,0,0.4-0.2,0.4-0.4c1.4-0.2,1.6-1.1,1.6-1.1
			l0.1-1.1h-4.2L49.8,54.8z"/>
		<path fill="#3F4040" d="M51.9,41.4c-1.5,0-2.8,0.7-3.7,1.8c-0.2,0.3-0.5,0.6-0.7,1c-1.1,2.4,0,5,1.2,6.6c0,0,0.5,0.5,0.6,1.5
			c0.1,0.5,0.2,0.8,0.3,1h0.1h1.1h2h1.2c0.2-0.2,0.3-0.5,0.4-1c0.2-1.2,0.6-1.5,0.6-1.5c0.8-1,1.5-2.5,1.6-4.1c0-0.2,0-0.4,0-0.6
			C56.6,43.5,54.5,41.4,51.9,41.4z M54.8,46.5L54.8,46.5L54.8,46.5c-0.1,1.1-0.5,2.2-1.2,3.1c-0.3,0.3-0.7,0.9-0.9,1.9H51
			c-0.2-1-0.7-1.6-0.9-1.9c-0.9-1.2-1.7-3.1-1-4.8c0.1-0.2,0.2-0.4,0.4-0.6l0,0l0,0c0.6-0.7,1.4-1.1,2.3-1.1c1.6,0,3,1.3,3,3
			C54.8,46.2,54.8,46.4,54.8,46.5z"/>
	</g>
	<g>
		<path fill="#3F4040" d="M49.8,26c0,0,0.2,1,1.6,1.1c0,0.2,0.2,0.4,0.4,0.4c0.2,0,0.4-0.2,0.4-0.4c1.4-0.2,1.6-1.1,1.6-1.1l0.1-1.1
			h-4.2L49.8,26z"/>
		<path fill="#3F4040" d="M51.9,12.5c-1.5,0-2.8,0.7-3.7,1.8c-0.2,0.3-0.5,0.6-0.7,1c-1.1,2.4,0,5,1.2,6.6c0,0,0.5,0.5,0.6,1.5
			c0.1,0.5,0.2,0.8,0.3,1h0.1h1.1h2h1.2c0.2-0.2,0.3-0.5,0.4-1c0.2-1.2,0.6-1.5,0.6-1.5c0.8-1,1.5-2.5,1.6-4.1c0-0.2,0-0.4,0-0.6
			C56.6,14.6,54.5,12.5,51.9,12.5z"/>
	</g>
</g>
</svg>
