<?xml version="1.0" encoding="utf-8"?>
<!-- Generator: Adobe Illustrator 19.1.0, SVG Export Plug-In . SVG Version: 6.00 Build 0)  -->
<svg version="1.2" baseProfile="tiny" id="Layer_1" xmlns="http://www.w3.org/2000/svg" xmlns:xlink="http://www.w3.org/1999/xlink"
	 x="0px" y="0px" viewBox="0 0 103.7 78.3" xml:space="preserve">
<g>
	<g>
		
			<circle fill="#F0F2F5" stroke="#3F4040" stroke-width="5" stroke-linejoin="round" stroke-miterlimit="10" cx="51.8" cy="20" r="17.5"/>
		<circle fill="#3F4040" cx="73" cy="19.6" r="3.5"/>
	</g>
	<g>
		<g>
			<path fill="#3F4040" d="M30,64.7c0-4.1-3.3-7.5-7.3-7.5H7.4c-4.1,0-7.3,3.4-7.3,7.5l0,10c0,2,1.6,3.5,3.5,3.5h22.9
				c2,0,3.5-1.6,3.5-3.5L30,64.7z"/>
		</g>
		<circle fill="#3F4040" cx="14.9" cy="48.2" r="7.5"/>
	</g>
	<g>
		<g>
			<path fill="#3F4040" d="M103.6,36.3c0-4.1-3.3-7.5-7.3-7.5H81c-4.1,0-7.3,3.4-7.3,7.5l0,10c0,2,1.6,3.5,3.5,3.5h22.9
				c2,0,3.5-1.6,3.5-3.5L103.6,36.3z"/>
		</g>
		<circle fill="#3F4040" cx="88.6" cy="19.8" r="7.5"/>
	</g>
	<g>
		<circle fill="#F0F2F5" stroke="#3F4040" stroke-width="5" stroke-miterlimit="10" cx="52" cy="48" r="17.5"/>
		<circle fill="#3F4040" cx="30.8" cy="48.4" r="3.5"/>
	</g>
	<g>
		<path fill="#3F4040" d="M48.3,47c0.1,0.1,0.2,0.3,0.2,0.4v6c0,0.2-0.1,0.3-0.2,0.4C48.2,53.9,48,54,47.9,54h-2.7
			c-0.2,0-0.3-0.1-0.4-0.2c-0.1-0.1-0.2-0.3-0.2-0.4v-6c0-0.2,0.1-0.3,0.2-0.4c0.1-0.1,0.3-0.2,0.4-0.2h2.7
			C48,46.8,48.2,46.9,48.3,47z M46.9,52.2c0-0.2-0.1-0.3-0.2-0.4c-0.1-0.1-0.3-0.2-0.4-0.2c-0.2,0-0.3,0.1-0.4,0.2
			c-0.1,0.1-0.2,0.3-0.2,0.4c0,0.2,0.1,0.3,0.2,0.4c0.1,0.1,0.3,0.2,0.4,0.2c0.2,0,0.3-0.1,0.4-0.2C46.9,52.5,46.9,52.3,46.9,52.2z
			 M59.2,49.5c0,0.5-0.1,0.9-0.4,1.3c0.1,0.3,0.1,0.7,0,1.1c-0.1,0.3-0.3,0.6-0.5,0.8c0.1,0.7-0.1,1.3-0.5,1.7
			c-0.4,0.5-1,0.7-1.8,0.7h-0.3h-0.7h-0.2c-0.4,0-0.9,0-1.3-0.1c-0.5-0.1-0.9-0.2-1.1-0.3c-0.3-0.1-0.6-0.2-1.1-0.4
			c-0.8-0.3-1.3-0.4-1.5-0.4c-0.2,0-0.3-0.1-0.4-0.2c-0.1-0.1-0.2-0.3-0.2-0.4v-6c0-0.2,0.1-0.3,0.2-0.4c0.1-0.1,0.3-0.2,0.4-0.2
			c0.2,0,0.4-0.2,0.7-0.5c0.3-0.4,0.6-0.7,0.9-1.1c0.4-0.5,0.8-0.9,1-1.1c0.1-0.1,0.2-0.3,0.3-0.4c0.1-0.2,0.1-0.3,0.2-0.4
			c0-0.1,0.1-0.3,0.1-0.6c0-0.3,0.1-0.5,0.1-0.6c0-0.1,0.1-0.3,0.2-0.5c0.1-0.2,0.2-0.3,0.3-0.5c0.1-0.1,0.3-0.2,0.4-0.2
			c0.3,0,0.5,0,0.8,0.1c0.2,0.1,0.4,0.1,0.6,0.2c0.1,0.1,0.3,0.2,0.4,0.4c0.1,0.2,0.2,0.3,0.2,0.4c0.1,0.1,0.1,0.3,0.1,0.5
			c0,0.2,0,0.3,0,0.4c0,0.1,0,0.2,0,0.4c0,0.2,0,0.5-0.1,0.7c-0.1,0.2-0.1,0.4-0.2,0.6c-0.1,0.1-0.1,0.3-0.2,0.5
			c0,0-0.1,0.1-0.1,0.1c0,0.1-0.1,0.1-0.1,0.2c0,0.1-0.1,0.1-0.1,0.2h2.6c0.5,0,0.9,0.2,1.3,0.5c0.3,0.3,0.5,0.8,0.5,1.3
			c0,0.5-0.2,1-0.5,1.4C59.1,49.1,59.2,49.3,59.2,49.5z"/>
	</g>
	<g>
		<path fill="#3F4040" d="M46.8,17.7c0.3,0.3,0.4,0.6,0.4,1v2.7c0,0.4-0.1,0.7-0.4,1c-0.3,0.3-0.6,0.4-0.9,0.4h-2.7
			c-0.4,0-0.7-0.1-0.9-0.4c-0.3-0.3-0.4-0.6-0.4-1v-2.7c0-0.4,0.1-0.7,0.4-1c0.3-0.3,0.6-0.4,0.9-0.4h2.7
			C46.2,17.3,46.5,17.4,46.8,17.7z M54.1,17.7c0.3,0.3,0.4,0.6,0.4,1v2.7c0,0.4-0.1,0.7-0.4,1c-0.3,0.3-0.6,0.4-1,0.4h-2.7
			c-0.4,0-0.7-0.1-0.9-0.4c-0.3-0.3-0.4-0.6-0.4-1v-2.7c0-0.4,0.1-0.7,0.4-1c0.3-0.3,0.6-0.4,0.9-0.4h2.7
			C53.5,17.3,53.8,17.4,54.1,17.7z M61.8,18.7v2.7c0,0.4-0.1,0.7-0.4,1c-0.3,0.3-0.6,0.4-1,0.4h-2.7c-0.4,0-0.7-0.1-1-0.4
			c-0.3-0.3-0.4-0.6-0.4-1v-2.7c0-0.4,0.1-0.7,0.4-1c0.3-0.3,0.6-0.4,1-0.4h2.7c0.4,0,0.7,0.1,1,0.4C61.6,17.9,61.8,18.3,61.8,18.7z
			"/>
	</g>
</g>
</svg>
