<?xml version="1.0" encoding="UTF-8" standalone="no"?>
<!DOCTYPE svg PUBLIC "-//W3C//DTD SVG 1.1//EN" "http://www.w3.org/Graphics/SVG/1.1/DTD/svg11.dtd">
<!-- Generator: Adobe Illustrator 19.1.0, SVG Export Plug-In . SVG Version: 6.00 Build 0)  -->
<svg
   xmlns:dc="http://purl.org/dc/elements/1.1/"
   xmlns:cc="http://creativecommons.org/ns#"
   xmlns:rdf="http://www.w3.org/1999/02/22-rdf-syntax-ns#"
   xmlns:svg="http://www.w3.org/2000/svg"
   xmlns="http://www.w3.org/2000/svg"
   xmlns:sodipodi="http://sodipodi.sourceforge.net/DTD/sodipodi-0.dtd"
   xmlns:inkscape="http://www.inkscape.org/namespaces/inkscape"
   version="1.2"
   id="Layer_1"
   x="0px"
   y="0px"
   viewBox="0 0 1601.2 989.4"
   xml:space="preserve"
   inkscape:version="0.48.4 r9939"
   width="100%"
   height="100%"
   sodipodi:docname="image-divider3.svg"><metadata
     id="metadata67"><rdf:RDF><cc:Work
         rdf:about=""><dc:format>image/svg+xml</dc:format><dc:type
           rdf:resource="http://purl.org/dc/dcmitype/StillImage" /><dc:title></dc:title></cc:Work></rdf:RDF></metadata><defs
     id="defs65" /><sodipodi:namedview
     pagecolor="#ffffff"
     bordercolor="#666666"
     borderopacity="1"
     objecttolerance="10"
     gridtolerance="10"
     guidetolerance="10"
     inkscape:pageopacity="0"
     inkscape:pageshadow="2"
     inkscape:window-width="1279"
     inkscape:window-height="661"
     id="namedview63"
     showgrid="false"
     inkscape:zoom="0.5158011"
     inkscape:cx="897.39733"
     inkscape:cy="312.31047"
     inkscape:window-x="294"
     inkscape:window-y="254"
     inkscape:window-maximized="0"
     inkscape:current-layer="g3" /><g
     id="g3"
     transform="translate(0,300.00001)"><path
       d="m 394,228 c -0.2,9.9 7.6,18.1 17.5,18.4 9.9,0.2 18.1,-7.6 18.4,-17.5 0.2,-9.9 -7.6,-18.1 -17.5,-18.4 -9.9,-0.3 -18.2,7.6 -18.4,17.5 z"
       id="path5"
       inkscape:connector-curvature="0"
       style="fill:#fefefa" /><path
       d="m 468.6,222.1 c 9.9,0.2 18.1,-7.6 18.4,-17.5 0.2,-9.9 -7.6,-18.1 -17.5,-18.4 -9.9,-0.2 -18.1,7.6 -18.4,17.5 -0.3,9.9 7.5,18.2 17.5,18.4 z"
       id="path7"
       inkscape:connector-curvature="0"
       style="fill:#fefefa" /><path
       d="m 610.9,169 c 9.9,0.2 18.1,-7.6 18.4,-17.5 0.2,-9.9 -7.6,-18.1 -17.5,-18.4 -9.9,-0.2 -18.1,7.6 -18.4,17.5 -0.3,9.9 7.5,18.2 17.5,18.4 z"
       id="path9"
       inkscape:connector-curvature="0"
       style="fill:#fefefa" /><path
       d="m 344,229.5 c 0.2,-9.9 -7.6,-18.1 -17.6,-18.4 -9.9,-0.2 -18.1,7.6 -18.4,17.5 -0.2,9.9 7.6,18.1 17.5,18.4 10,0.2 18.3,-7.7 18.5,-17.5 z"
       id="path11"
       inkscape:connector-curvature="0"
       style="fill:#fefefa" /><path
       d="m 459.5,168.5 c 0.2,-9.9 -7.6,-18.1 -17.5,-18.3 -9.9,-0.2 -18.1,7.6 -18.4,17.5 -0.2,9.9 7.6,18.1 17.5,18.4 10,0.2 18.2,-7.7 18.4,-17.6 z"
       id="path13"
       inkscape:connector-curvature="0"
       style="fill:#fefefa" /><path
       d="m 724,189.8 c -9.9,-0.2 -18.1,7.6 -18.4,17.5 -0.2,9.9 7.6,18.1 17.5,18.4 9.9,0.2 18.1,-7.6 18.4,-17.5 0.2,-10 -7.6,-18.2 -17.5,-18.4 z"
       id="path15"
       inkscape:connector-curvature="0"
       style="fill:#fefefa" /><path
       d="m 816.5,294.1 c -0.2,9.9 7.6,18.1 17.5,18.4 9.9,0.2 18.1,-7.6 18.4,-17.5 0.2,-9.9 -7.6,-18.1 -17.5,-18.4 -10,-0.3 -18.2,7.6 -18.4,17.5 z"
       id="path17"
       inkscape:connector-curvature="0"
       style="fill:#fefefa" /><path
       d="m 883.8,155 c 0.2,-9.9 -7.6,-18.1 -17.5,-18.4 -9.9,-0.2 -18.1,7.6 -18.4,17.5 -0.2,9.9 7.6,18.1 17.5,18.4 10,0.3 18.2,-7.6 18.4,-17.5 z"
       id="path23"
       inkscape:connector-curvature="0"
       style="fill:#fefefa" /><path
       d="m 562.7,232.2 c -0.2,9.9 7.6,18.1 17.5,18.4 9.9,0.2 18.2,-7.6 18.4,-17.5 0.2,-9.9 -7.6,-18.1 -17.6,-18.4 -9.8,-0.3 -18.1,7.6 -18.3,17.5 z"
       id="path25"
       inkscape:connector-curvature="0"
       style="fill:#fefefa" /><path
       d="m 696.6,153.8 c -9.9,-0.2 -18.1,7.6 -18.4,17.5 -0.2,9.9 7.6,18.1 17.5,18.4 9.9,0.2 18.1,-7.6 18.4,-17.5 0.3,-10 -7.6,-18.2 -17.5,-18.4 z"
       id="path27"
       inkscape:connector-curvature="0"
       style="fill:#fefefa" /><path
       d="m 233.9,366.2 c -0.2,-9.9 -8.5,-17.7 -18.4,-17.5 -9.9,0.2 -17.7,8.4 -17.5,18.4 0.2,9.9 8.4,17.8 18.4,17.5 9.8,-0.3 17.7,-8.5 17.5,-18.4 z"
       id="path37"
       inkscape:connector-curvature="0"
       style="fill:#fefefa" /><path
       d="m 1158.2,233.9 c 0.2,9.9 8.4,17.8 18.4,17.5 9.9,-0.2 17.8,-8.5 17.5,-18.4 -0.2,-9.9 -8.5,-17.7 -18.4,-17.5 -9.9,0.3 -17.7,8.5 -17.5,18.4 z"
       id="path57"
       inkscape:connector-curvature="0"
       style="fill:#fefefa" /><path
       d="m 27.131495,672.12504 c 9.923968,0.2 18.143828,-7.6 18.444554,-17.5 0.200484,-9.9 -7.618406,-18.09997 -17.542375,-18.39997 -5.713803,-0.1 -10.926395,2.49997 -14.234387,6.59997 -0.902179,-1.2 -1.904601,-2.3 -3.007264,-3.2 4.310412,-3.19997 7.117193,-8.19997 7.317677,-13.99997 0.100242,-3.8 -1.102664,-7.4 -3.107507,-10.4 -0.701695,-1.6 -1.704116,-3 -2.80678,-4.3 0.902179,-0.8 1.804359,-1.6 2.606296,-2.5 3.207749,4.2 8.219857,7 13.833418,7.2 9.923969,0.2 18.143828,-7.6 18.444554,-17.5 0.100243,-5.9 -2.606296,-11.2 -7.016953,-14.6 0.90218,-0.7 1.704117,-1.5 2.506054,-2.4 3.207751,4 8.119617,6.7 13.632936,6.9 5.513319,0.1 10.525427,-2.3 13.93366,-6.2 0.801937,1 1.603875,1.9 2.606296,2.7 -4.310413,3.2 -7.317677,8.2 -7.417919,14 -0.100243,2.7 0.50121,5.3 1.503632,7.7 -2.105085,-0.9 -4.410655,-1.5 -6.916709,-1.6 -7.919131,-0.2 -14.83584,4.9 -17.341896,12 -1.102664,2.3 -1.804359,4.8 -1.804359,7.4 -0.200484,9.9 7.618407,18.09997 17.54238,18.39997 8.019373,0.2 14.936082,-4.9 17.442136,-11.99997 1.102664,-2.2 1.704117,-4.7 1.804359,-7.4 0.100242,-2.7 -0.501211,-5.3 -1.503632,-7.7 2.105085,0.9 4.410655,1.5 6.916705,1.5 4.911865,0.1 9.422763,-1.8 12.830996,-4.9 1.704122,-1.1 3.307996,-2.4 4.611143,-4 1.50363,2.1 3.50848,3.8 5.7138,5 3.10751,2.7 7.1172,4.4 11.52785,4.5 9.92398,0.2 18.14383,-7.6 18.44456,-17.5 0.20048,-7.1 -3.8092,-13.3 -9.72349,-16.3 -0.10024,-0.1 -0.10024,-0.1 -0.20048,-0.2 1.2029,-0.9 2.30557,-1.9 3.20775,-3 3.20774,4.3 8.21985,7.1 13.93366,7.3 5.61356,0.1 10.52542,-2.3 13.93366,-6.2 0.80193,1.2 1.80436,2.2 2.90702,3.2 -4.00969,3.2 -6.61598,8 -6.81647,13.5 -0.10024,5.8 2.6063,11 6.81647,14.4 -1.20291,0.8 -2.30557,1.8 -3.30799,2.9 -3.20775,-4.3 -8.21986,-7.2 -13.93366,-7.3 -9.92398,-0.2 -18.14383,7.6 -18.44456,17.5 -0.20048,9.9 7.6184,18.09997 17.54238,18.39997 5.41307,0.1 10.2247,-2.2 13.63293,-5.9 0.80194,1.1 1.80436,2.2 2.90702,3.1 -3.8092,3.2 -6.31525,7.9 -6.41549,13.3 -0.20049,9.9 7.6184,18.1 17.54237,18.4 9.92398,0.2 18.14383,-7.6 18.44456,-17.5 0.10024,-5.7 -2.50605,-10.7 -6.51574,-14.1 1.30315,-1 2.40581,-2.2 3.30799,-3.6 3.20775,4.1 8.11962,6.8 13.73316,7 5.41307,0.1 10.2247,-2.2 13.53269,-5.8 3.10751,4.8 8.52058,8 14.63536,8.2 6.01452,0.1 11.32736,-2.7 14.73559,-7.1 0.80194,1 1.70412,1.9 2.6063,2.7 -4.31041,3.2 -7.21744,8.2 -7.31768,13.9 -0.20048,9.9 7.61841,18.1 17.54238,18.4 5.81404,0.1 10.92639,-2.5 14.33463,-6.6 3.20775,4.3 8.21985,7.1 13.93366,7.3 9.92397,0.2 18.14383,-7.6 18.44456,-17.5 0.20048,-9.9 -7.61841,-18.1 -17.54238,-18.4 -5.71381,-0.1 -10.9264,2.5 -14.23439,6.6 -0.90218,-1.2 -1.9046,-2.3 -3.00726,-3.2 4.31041,-3.2 7.11719,-8.19997 7.31767,-13.99997 0.10025,-5.7 -2.50605,-10.8 -6.51574,-14.2 1.20291,-0.9 2.30557,-1.9 3.20775,-3 3.20775,4.2 8.21986,7 13.83342,7.2 9.92397,0.2 18.14383,-7.6 18.44456,-17.5 0.10024,-5.9 -2.6063,-11.2 -7.01695,-14.6 0.90218,-0.7 1.70411,-1.5 2.50605,-2.4 3.20775,4 8.11962,6.7 13.63293,6.9 5.51332,0.1 10.52543,-2.3 13.93366,-6.2 0.80194,1 1.60388,1.9 2.6063,2.7 -4.31041,3.2 -7.31768,8.2 -7.41792,14 -0.10024,4.2 1.30315,8.1 3.60872,11.2 -2.80678,-1.9 -6.11477,-3.1 -9.72349,-3.1 -9.92397,-0.2 -18.14383,7.6 -18.44456,17.5 -0.20048,9.89997 7.61841,18.09997 17.54238,18.39997 9.92397,0.2 18.14383,-7.6 18.44456,-17.49997 0.10024,-4.2 -1.20291,-8 -3.60872,-11.1 2.80678,1.9 6.11477,3.1 9.72349,3.1 9.92397,0.2 18.24407,-7.6 18.44456,-17.5 0.10024,-5.7 -2.50606,-10.8 -6.61599,-14.2 1.00243,-0.7 1.80436,-1.5 2.6063,-2.4 3.40823,4.3 8.72107,7 14.63536,6.9 5.81404,-0.1 11.02663,-3.1 14.13414,-7.5 3.20775,5.5 9.22228,9.1 15.9385,8.9 9.92398,-0.2 17.74287,-8.4 17.54238,-18.3 -0.20048,-9.9 -8.52058,-17.8 -18.44456,-17.5 -5.91428,0.1 -11.02663,3.1 -14.13414,7.5 -3.20775,-5.5 -8.62083,-9.1 -15.43729,-8.9 -1.10267,0 -1.60388,0.2 -2.6063,0.4 l 0,-0.1 c -1.00242,0 -0.80194,0.1 -1.00242,0.1 -3.70896,0.8 -7.21744,2.8 -9.62325,5.5 -0.70169,-0.9 -1.60387,-1.7 -2.50605,-2.5 4.51089,-3.2 7.41792,-8.3 7.6184,-14.2 0.20049,-9.9 -7.6184,-18.1 -17.64262,-18.4 -5.81404,-0.1 -10.92639,2.5 -14.33463,6.6 -0.70169,-1 -1.50363,-1.8 -2.40581,-2.6 4.71138,-3.1 7.91913,-8.4 8.01937,-14.5 0.10025,-5.5 -2.30557,-10.4 -6.01453,-13.69996 1.20291,-0.8 2.30557,-1.8 3.308,-2.9 1.30314,1.3 2.90702,2.5 4.61113,3.3 2.80679,1.99996 6.21502,3.29996 9.92398,3.29996 5.61356,0.1 10.52543,-2.3 13.93366,-6.19996 0.70169,0.8 1.40339,1.6 2.20533,2.3 -4.61114,3.19996 -7.21744,8.39996 -7.31768,14.39996 -0.20049,7.4 4.21017,13.9 11.22712,16.8 l 0,-0.4 c 2.00484,1.3 4.91187,2 8.01937,1.9 9.92398,-0.2 17.54238,-8.4 17.3419,-18.4 -0.20049,-7.7 -5.41308,-14.19996 -12.32979,-16.49996 6.21502,-2.9 10.42519,-9.3 10.2247,-16.6 -0.10024,-2.6 -0.70169,-5.1 -1.80436,-7.3 -0.10024,-2.2 -0.70169,-4.3 -1.50363,-6.2 0.30073,-0.4 0.60145,-0.8 0.80194,-1.2 3.40823,3.6 8.21985,5.9 13.53269,5.8 5.61356,-0.1 10.52543,-2.9 13.73318,-7 0.90217,1.3 2.10508,2.5 3.30799,3.6 -4.00969,3.4 -6.61599,8.4 -6.51574,14.1 0.20048,9.9 8.52058,17.8 18.44455,17.5 9.92398,-0.2 17.84311,-8.4 17.54238,-18.4 -0.10024,-5.4 -2.60629,-10.1 -6.4155,-13.3 1.10267,-0.9 2.10509,-1.9 2.90703,-3.1 3.40823,3.7 8.21985,6 13.63293,5.8 9.92397,-0.2 17.8431,-8.4 17.54238,-18.4 -0.20049,-9.9 -8.52059,-17.8 -18.44456,-17.5 -5.81405,0.1 -10.82615,3 -13.93366,7.3 -1.00242,-1.1 -2.10509,-2.1 -3.30799,-2.9 4.21017,-3.4 6.91671,-8.6 6.81647,-14.4 -0.10025,-5.5 -2.80679,-10.3 -6.81647,-13.5 1.10266,-0.9 2.10508,-2 2.90702,-3.2 3.40823,3.9 8.3201,6.4 13.93366,6.2 5.81405,-0.1 10.72591,-3 13.93366,-7.3 0.90218,1.2 2.00484,2.2 3.20775,3 -4.10993,3.4 -6.81647,8.5 -6.71622,14.3 0.20048,9.9 8.52058,17.8 18.44455,17.5 5.81405,-0.1 10.82616,-3 13.93366,-7.3 3.40824,4.1 8.52059,6.8 14.23439,6.6 9.92397,-0.2 17.8431,-8.4 17.54238,-18.4 0,-0.9 -0.10024,-1.7 -0.30073,-2.5 -0.10024,-5 -2.30557,-9.5 -5.7138,-12.7 0.80194,-0.8 1.50363,-1.6 2.10508,-2.5 3.40824,4.4 8.72107,7.3 14.7356,7.1 4.81163,-0.1 9.12204,-2.1 12.22955,-5.2 3.00726,5.5 8.72106,9.3 15.43729,9.4 7.01695,0.2 13.23196,-3.7 16.33947,-9.6 3.20775,2.6 7.31768,4.1 11.72833,4 9.92398,-0.2 17.84311,-8.4 17.54238,-18.3 -0.10024,-4.2 -1.70412,-8 -4.21017,-11 0.70169,-0.6 1.30315,-1.2 1.80436,-1.9 3.20775,4.3 8.21986,7.1 13.93366,7.3 9.92397,0.2 18.14383,-7.6 18.44456,-17.5 0.20048,-9.9 -7.61841,-18.1 -17.54238,-18.4 -5.41308,-0.1 -10.32494,2.3 -13.73318,6.1 -0.60145,-1.3 -1.40339,-2.5 -2.30557,-3.7 3.60872,-3.2 5.91429,-7.7 6.01453,-12.9 0.10024,-3.8 -1.10266,-7.4 -3.1075,-10.4 -0.7017,-1.6 -1.70412,-3 -2.80679,-4.3 0.90218,-0.8 1.80436,-1.6 2.6063,-2.5 3.20775,4.2 8.21986,7 13.83342,7.2 9.92397,0.2 18.14383,-7.6 18.44456,-17.5 0.10024,-5.9 -2.6063,-11.2 -7.01695,-14.6 0.90217,-0.7 1.70411,-1.5 2.50605,-2.4 3.20775,4 8.11961,6.7 13.63293,6.9 5.61356,0.1 10.52543,-2.3 13.93366,-6.2 0.80194,1 1.60388,1.9 2.6063,2.7 -4.31041,3.2 -7.31768,8.2 -7.41792,14 -0.20048,9.9 7.6184,18.1 17.54238,18.4 4.91186,0.1 9.42276,-1.8 12.83099,-4.9 1.70412,-1.1 3.308,-2.4 4.61114,-4 1.50364,2 3.50848,3.8 5.71381,5 3.1075,2.7 7.11719,4.4 11.52784,4.5 5.81405,0.1 11.02664,-2.5 14.43488,-6.7 0.10024,0.1 0.30072,0.3 0.40096,0.4 -4.71138,3.1 -7.91913,8.4 -8.11961,14.6 -0.20048,9.9 7.6184,18.1 17.54238,18.4 4.00968,0.1 7.6184,-1.1 10.62567,-3.2 1.2029,-0.6 2.30557,-1.4 3.30799,-2.3 0.80194,1 1.60387,1.9 2.60629,2.7 -3.8092,3.2 -6.31525,7.9 -6.41549,13.3 -0.20049,9.9 7.6184,18.1 17.54237,18.4 2.20533,0.1 4.41066,-0.3 6.4155,-1 0,0 0,0 0.10024,0 1.90461,-0.7 3.70896,-1.7 5.31284,-3 0,0 0,0 0,0 0.50121,-0.4 0.90218,-0.8 1.40339,-1.2 0.10024,-0.1 0.20048,-0.2 0.30073,-0.4 0.30072,-0.3 0.60145,-0.7 0.90217,-1 0.10025,-0.1 0.20049,-0.2 0.30073,-0.3 0.90218,1.3 2.00484,2.4 3.30799,3.4 -4.31041,3.2 -7.21743,8.2 -7.31768,13.9 -0.10024,5.8 2.50606,10.9 6.71623,14.3 -1.40339,1 -2.6063,2.2 -3.60872,3.5 -3.20775,-4.6 -8.3201,-7.7 -14.33463,-7.8 -9.92397,-0.2 -18.14383,7.6 -18.44455,17.5 -0.20049,9.9 7.6184,18.1 17.54237,18.3 6.01453,0.1 11.32737,-2.7 14.7356,-7.1 1.00242,1.4 2.10509,2.6 3.50848,3.7 -4.31042,3.2 -7.21744,8.2 -7.31768,13.9 -0.20049,9.9 7.6184,18.1 17.54238,18.4 5.81404,0.1 10.92639,-2.5 14.33463,-6.6 3.20774,4.3 8.21985,7.2 13.93366,7.3 9.92397,0.2 18.14383,-7.6 18.44455,-17.5 0.10025,-5.8 -2.50605,-10.9 -6.61598,-14.3 1.20291,-0.9 2.30557,-1.9 3.20775,-3 3.20775,4.3 8.21986,7.1 13.93366,7.3 5.61356,0.1 10.52543,-2.3 13.93366,-6.2 0.80194,1.2 1.80436,2.2 2.90702,3.2 -4.00968,3.2 -6.61598,8 -6.81646,13.5 -0.10025,5.8 2.60629,11 6.81646,14.4 -1.2029,0.8 -2.30557,1.8 -3.30799,2.9 -3.20775,-4.3 -8.21986,-7.2 -13.93366,-7.3 -9.92397,-0.2 -18.14383,7.6 -18.44456,17.5 -0.20048,9.9 7.61841,18.09996 17.54238,18.39996 5.41308,0.1 10.2247,-2.19996 13.63294,-5.89996 0.80193,1.1 1.80435,2.2 2.90702,3.1 -3.8092,3.19996 -6.31526,7.89996 -6.4155,13.29996 -0.20048,9.9 7.6184,18.1 17.54238,18.4 9.92397,0.2 18.14383,-7.6 18.44456,-17.5 0.10024,-5.7 -2.50606,-10.7 -6.51574,-14.09996 1.30314,-1 2.40581,-2.2 3.30799,-3.6 3.20775,4.1 8.11961,6.79996 13.73317,6.99996 5.41308,0.1 10.2247,-2.2 13.53269,-5.79996 0.7017,1 1.50364,2 2.40582,2.9 -2.90703,3.09996 -4.71139,7.19996 -4.81163,11.79996 -0.20048,7.3 4.10993,13.7 10.32494,16.6 -6.9167,2.4 -11.92881,8.8 -12.1293,16.5 -0.20048,9.9 7.61841,18.1 17.54238,18.4 9.92402,0.2 18.14386,-7.6 18.44459,-17.5 0.20048,-7.3 -4.10993,-13.7 -10.32493,-16.6 2.40581,-0.8 4.61114,-2.1 6.41548,-3.9 3.20775,4.6 8.42035,7.7 14.43488,7.8 5.81404,0.1 10.92639,-2.5 14.33462,-6.6 3.20775,4.3 8.21987,7.1 13.93367,7.3 9.92402,0.2 18.14382,-7.6 18.44452,-17.5 0.2005,-9.9 -7.6184,-18.09996 -17.54234,-18.39996 -5.7138,-0.1 -10.9264,2.49996 -14.33463,6.59996 -0.90218,-1.2 -1.90461,-2.3 -3.00727,-3.2 4.31041,-3.19996 7.11719,-8.19996 7.31768,-13.99996 0.10024,-3.8 -1.10267,-7.4 -3.10751,-10.4 -0.70169,-1.6 -1.70412,-3 -2.80678,-4.3 0.90218,-0.8 1.80436,-1.6 2.6063,-2.5 3.20775,4.2 8.21986,7 13.83342,7.2 9.92393,0.2 18.14383,-7.6 18.44453,-17.5 0.1002,-5.9 -2.6063,-11.2 -7.017,-14.6 0.9022,-0.7 1.7041,-1.5 2.5061,-2.4 3.2077,4 8.1196,6.7 13.6329,6.9 5.6136,0.1 10.5254,-2.3 13.9337,-6.2 0.8019,1 1.6039,1.9 2.6063,2.7 -4.3104,3.2 -7.3177,8.2 -7.4179,14 -0.1003,2.7 0.5012,5.3 1.5036,7.7 -2.1051,-0.9 -4.4107,-1.5 -6.9167,-1.6 -7.9192,-0.2 -14.8359,4.9 -17.3419,12 -1.1027,2.3 -1.8044,4.8 -1.8044,7.4 -0.2005,9.9 7.6184,18.09996 17.5424,18.39996 8.0194,0.2 14.9361,-4.89996 17.4421,-11.99996 1.1027,-2.2 1.7042,-4.7 1.8044,-7.4 0.1002,-2.7 -0.5012,-5.3 -1.5036,-7.7 2.1051,0.9 4.4106,1.5 6.9167,1.5 4.9118,0.1 9.4227,-1.8 12.831,-4.9 1.7041,-1.1 3.308,-2.4 4.6111,-4 1.5036,2.1 3.5085,3.8 5.7138,5 3.1075,2.7 7.1172,4.4 11.5279,4.5 9.9239,0.2 18.1438,-7.6 18.4445,-17.5 0.2005,-7.1 -3.8092,-13.3 -9.7235,-16.3 -0.1002,-0.1 -0.1002,-0.1 -0.2005,-0.2 1.203,-0.9 2.3056,-1.9 3.2078,-3 3.2077,4.3 8.2199,7.1 13.9337,7.3 5.6135,0.1 10.5254,-2.3 13.9336,-6.2 0.802,1.2 1.8044,2.2 2.907,3.2 -4.0096,3.2 -6.6159,8 -6.8164,13.5 -0.1003,5.8 2.6063,11 6.8164,14.4 -1.2029,0.8 -2.3055,1.8 -3.308,2.9 -3.2077,-4.3 -8.2198,-7.2 -13.9336,-7.3 -9.924,-0.2 -18.1438,7.6 -18.4446,17.5 -0.2005,9.9 7.6184,18.09996 17.5424,18.39996 5.4131,0.1 10.2247,-2.2 13.6329,-5.89996 0.802,1.09996 1.8044,2.19996 2.9071,3.09996 -3.8092,3.2 -6.3153,7.9 -6.4155,13.3 -0.2005,9.9 7.6184,18.1 17.5423,18.4 9.924,0.2 18.1439,-7.6 18.4446,-17.5 0.1002,-5.7 -2.5061,-10.7 -6.5157,-14.1 1.3031,-1 2.4058,-2.2 3.308,-3.59996 3.2077,4.09996 8.1196,6.79996 13.7331,6.99996 5.4131,0.1 10.2247,-2.2 13.5327,-5.8 3.1075,4.8 8.5206,8 14.6354,8.2 6.0145,0.1 11.3273,-2.7 14.7356,-7.1 0.8019,1 1.7041,1.9 2.6063,2.7 -4.3104,3.2 -7.2175,8.2 -7.3177,13.9 -0.2005,9.9 7.6184,18.1 17.5424,18.4 5.814,0.1 10.9264,-2.5 14.3346,-6.6 3.2077,4.3 8.2199,7.1 13.9337,7.3 9.9239,0.2 18.1438,-7.6 18.4445,-17.5 0.2005,-9.9 -7.6184,-18.1 -17.5424,-18.4 -5.7138,-0.1 -10.9264,2.5 -14.2343,6.6 -0.9022,-1.2 -1.9047,-2.3 -3.0073,-3.2 4.3104,-3.2 7.1172,-8.19996 7.3177,-13.99996 0.1002,-5.7 -2.5061,-10.8 -6.5158,-14.2 1.2029,-0.9 2.3056,-1.9 3.2078,-3 3.2077,4.2 8.2198,7 13.8334,7.2 9.924,0.2 18.1438,-7.6 18.4445,-17.5 0.1003,-5.9 -2.6062,-11.2 -7.0169,-14.6 0.9022,-0.7 1.7041,-1.5 2.5061,-2.4 3.2077,4 8.1196,6.7 13.6329,6.9 5.6135,0.1 10.5254,-2.3 13.9336,-6.2 0.802,1 1.6039,1.9 2.6063,2.7 -4.3104,3.2 -7.3176,8.2 -7.4179,14 -0.1002,4.2 1.3032,8.1 3.6087,11.2 -2.8067,-1.9 -6.1147,-3.1 -9.7235,-3.1 -9.9239,-0.2 -18.1438,7.6 -18.4445,17.5 -0.2005,9.9 7.6184,18.09996 17.5424,18.39996 9.9239,0.2 18.1438,-7.6 18.4445,-17.49996 0.1003,-4.2 -1.3031,-8 -3.6087,-11.1 2.8068,1.9 6.1148,3.1 9.7235,3.1 9.924,0.2 18.2441,-7.6 18.4446,-17.5 0.1002,-5.7 -2.5061,-10.8 -6.616,-14.2 1.0024,-0.7 1.8043,-1.5 2.6063,-2.4 3.4082,4.3 8.721,7 14.5351,6.9 5.814,-0.1 11.0266,-3.1 14.1341,-7.5 3.2078,5.5 9.2223,9.1 15.9385,8.9 9.924,-0.2 17.7429,-8.4 17.5424,-18.3 -0.2005,-9.9 -8.5206,-17.8 -18.4445,-17.5 -5.9143,0.1 -11.0267,3.1 -14.1342,7.5 -3.2077,-5.5 -8.7211,-9.1 -15.5375,-8.9 -1.1027,0 -1.7041,0.2 -2.7066,0.4 l 0,-0.1 c 0,0 -0.7017,0.1 -0.8019,0.1 -3.709,0.8 -7.1172,2.8 -9.6233,5.5 -0.7016,-0.9 -1.6038,-1.7 -2.506,-2.5 4.5109,-3.2 7.4179,-8.3 7.6184,-14.2 0.2005,-9.9 -7.6184,-18.1 -17.6426,-18.4 -5.8141,-0.1 -10.9264,2.5 -14.3346,6.6 -0.7017,-1 -1.5037,-1.8 -2.4059,-2.6 4.7114,-3.1 7.9192,-8.4 8.0194,-14.5 0.1003,-5.5 -2.3056,-10.4 -6.0145,-13.7 1.2029,-0.8 2.3056,-1.8 3.308,-2.9 1.3031,1.3 2.907,2.5 4.6111,3.3 2.8068,2 6.215,3.3 9.924,3.3 5.6135,0.1 10.5254,-2.3 13.9336,-6.2 0.7017,0.8 1.4034,1.6 2.2054,2.3 -4.6112,3.2 -7.3177,8.4 -7.4179,14.4 -0.2005,7.4 4.1099,13.9 11.1268,16.8 l 0,-0.4 c 2.0049,1.3 5.0121,2 8.1196,1.9 9.924,-0.2 17.5424,-8.5 17.3419,-18.4 -0.2004,-7.7 -5.3128,-14.2 -12.2295,-16.5 6.215,-2.9 10.4252,-9.3 10.2247,-16.6 -0.1002,-4.6 -1.9046,-8.7 -4.8116,-11.8 0.9022,-0.9 1.7041,-1.9 2.4058,-2.9 3.4082,3.6 8.2198,5.9 13.5327,5.8 5.6135,-0.1 10.5254,-2.9 13.7332,-7 0.9021,1.3 2.105,2.5 3.3079,3.6 -4.0096,3.4 -6.6159,8.5 -6.5157,14.1 0.2005,9.9 8.5206,17.8 18.4446,17.5 9.9239,-0.2 17.8431,-8.4 17.5423,-18.4 -0.1002,-5.4 -2.6063,-10.1 -6.4155,-13.3 1.1027,-0.9 2.1051,-1.9 2.9071,-3.1 3.4082,3.7 8.2198,6 13.6329,5.8 9.924,-0.2 17.8431,-8.4 17.5424,-18.4 -0.2005,-9.9 -8.5206,-17.8 -18.4446,-17.5 -5.814,0.1 -10.8261,3 -13.9336,7.3 -1.0025,-1.1 -2.1051,-2.1 -3.308,-2.9 4.2101,-3.4 6.9167,-8.6 6.8164,-14.4 -0.1002,-5.5 -2.8067,-10.3 -6.8164,-13.5 1.1026,-0.9 2.1051,-2 2.907,-3.2 3.4082,3.9 8.3201,6.4 13.9337,6.2 5.814,-0.1 10.7259,-3 13.9336,-7.3 0.9022,1.2 2.0049,2.2 3.2078,3 -4.11,3.4 -6.8165,8.5 -6.616,14.3 0.2005,9.9 8.5206,17.8 18.4445,17.5 5.8141,-0.1 10.8262,-3 13.9337,-7.3 3.4082,4.1 8.5206,6.8 14.3346,6.6 9.924,-0.2 17.8431,-8.4 17.5424,-18.4 -0.1002,-5.8 -3.0073,-10.8 -7.3177,-13.9 1.3032,-1.1 2.5061,-2.3 3.5085,-3.7 3.4082,4.4 8.7211,7.3 14.7356,7.1 9.924,-0.2 17.8431,-8.4 17.5424,-18.3 -0.2005,-9.9 -8.5206,-17.8 -18.4446,-17.5 -6.0145,0.1 -11.2271,3.2 -14.3346,7.8 -1.0024,-1.4 -2.2053,-2.5 -3.6087,-3.5 4.1099,-3.4 6.8164,-8.5 6.7162,-14.3 -0.1002,-5.8 -3.0073,-10.7 -7.3177,-13.9 1.2029,-1 2.3056,-2.2 3.308,-3.4 3.4082,4.3 8.6208,7 14.5351,6.9 9.924,-0.2 17.8431,-8.4 17.5424,-18.4 -0.1002,-6.1 -3.308,-11.3 -8.0194,-14.5 1.1027,-0.8 2.0049,-1.7 2.9071,-2.8 3.4082,3.6 8.1196,5.8 13.4324,5.7 9.924,-0.2 17.8431,-8.4 17.5424,-18.4 -0.1003,-5.4 -2.7066,-10.1 -6.5158,-13.3 3.8092,-3.4 6.3153,-8.3 6.1148,-13.8 -0.2005,-9.9 -8.5206,-17.8 -18.4445,-17.5 -5.5134,0.1 -10.325,2.8 -13.5327,6.7 -0.802,-0.9 -1.7042,-1.8 -2.7066,-2.5 4.11,-3.4 6.8165,-8.5 6.616,-14.3 -0.1002,-5.8 -3.0073,-10.8 -7.3177,-13.9 1.1027,-0.9 2.2054,-2 3.0073,-3.2 3.4082,4.1 8.5206,6.8 14.3346,6.7 5.8141,-0.1 10.8262,-3 14.0339,-7.3 0.802,0.8 1.7041,1.6 2.6063,2.2 -4.7114,3.3 -7.8189,8.9 -7.6184,15.1 0.2005,9.9 8.5206,17.8 18.4446,17.5 6.1147,-0.1 11.5278,-3.4 14.6353,-8.2 3.4083,4.3 8.7211,6.9 14.6354,6.8 8.1196,-0.2 14.9361,-5.4 16.9409,-13.4 l 3.308,0 0,-36.000002 -1604.8769473,0 -0.2004843,580.199932 c 5.8140452,0.1 11.7283326,-2.4 15.1365656,-6.5 3.20775,4.2 8.219858,7.2 13.933661,7.3 z M 1005.3947,318.32511 c -3.2077,3.2 -5.2125,7.5 -5.3127,12.3 -0.10028,5 1.8042,9.6 5.012,12.9 -1.1027,0.9 -2.1051,2 -2.907,3.1 -3.10746,-2.7 -7.01695,-4.3 -11.4276,-4.4 -4.41066,-0.1 -8.5206,1.4 -11.72835,4 -0.60145,-1.2 -1.40339,-2.2 -2.30557,-3.2 2.70654,-3.1 4.41066,-7.1 4.5109,-11.5 0.10024,-4.9 -1.70412,-9.4 -4.81162,-12.7 1.00242,-0.7 1.80436,-1.5 2.60629,-2.4 3.00727,2.4 6.71624,3.9 10.82617,4 4.81162,0.1 9.12208,-1.7 12.42998,-4.6 1.0024,0.9 2.0048,1.7 3.1075,2.5 z m -481.2626,70.8 c -0.80194,-1 -1.70412,-1.9 -2.70654,-2.8 4.81163,-3.1 8.01938,-8.5 8.11962,-14.6 0.10024,-5.7 -2.50606,-10.7 -6.51574,-14.1 0.70169,-0.5 1.30315,-1.1 1.9046,-1.8 3.30799,3.1 7.71864,5 12.73075,4.9 0,0 0,0 0.10024,0 0.80194,0.1 1.60388,0.2 2.40582,0.2 5.41307,0.1 10.2247,-2.2 13.53269,-5.8 0.30072,0.4 0.60145,0.8 0.80194,1.1 -4.21018,3.4 -6.91671,8.6 -6.81647,14.4 0.20048,7.7 5.11235,14.1 11.92882,16.5 -1.80436,0.9 -3.50848,2 -4.91187,3.4 -3.10751,-5.7 -9.22228,-9.6 -16.23923,-9.4 -6.01453,0.3 -11.22712,3.4 -14.33463,8 z m -507.626274,90.1 c -0.601453,-1.2 -1.403391,-2.2 -2.30557,-3.2 2.706538,-3.1 4.410655,-7.1 4.510897,-11.5 0.100242,-4.9 -1.704117,-9.4 -4.811623,-12.7 1.002421,-0.7 1.804358,-1.5 2.606296,-2.4 3.007264,2.4 6.716224,3.9 10.826153,4 4.811624,0.1 9.122031,-1.7 12.430023,-4.6 0.902179,1 1.904601,1.8 3.007265,2.6 -3.20775,3.2 -5.212593,7.5 -5.312835,12.3 -0.100242,5 1.804359,9.6 5.012108,12.9 -1.102664,0.9 -2.105085,2 -2.907023,3.1 -3.107507,-2.7 -7.016951,-4.3 -11.427601,-4.4 -4.310413,-0.2 -8.420341,1.4 -11.62809,3.9 z"
       id="path61"
       inkscape:connector-curvature="0"
       style="fill:#fefefa" /><path
       style="fill:#fefefa;fill-opacity:1"
       d="m 0.30837245,190.14005 c 0,-103.964498 0.23490005,-146.495427 0.52200005,-94.513181 0.2871,51.982251 0.2871,137.044101 0,189.026351 -0.2871,51.98225 -0.52200005,9.45132 -0.52200005,-94.51317 z"
       id="path3039"
       inkscape:connector-curvature="0"
       transform="translate(0,-300.00004)" /><rect
       style="fill:#fefefa;fill-opacity:1"
       id="rect3049"
       width="1603.3313"
       height="399.37875"
       x="-3.7826069e-06"
       y="-301.29196" /></g></svg>
