<?xml version="1.0" encoding="utf-8"?>
<!-- Generator: Adobe Illustrator 19.1.0, SVG Export Plug-In . SVG Version: 6.00 Build 0)  -->
<svg version="1.2" baseProfile="tiny" id="Layer_1" xmlns="http://www.w3.org/2000/svg" xmlns:xlink="http://www.w3.org/1999/xlink"
	 x="0px" y="0px" viewBox="0 0 103.7 78.3" xml:space="preserve">
<g>
	<g>
		
			<circle fill="#F0F2F5" stroke="#3F4040" stroke-width="5" stroke-linejoin="round" stroke-miterlimit="10" cx="51.8" cy="20" r="17.5"/>
		<circle fill="#3F4040" cx="73" cy="19.6" r="3.5"/>
	</g>
	<g>
		<g>
			<path fill="#3F4040" d="M30,64.7c0-4.1-3.3-7.5-7.3-7.5H7.4c-4.1,0-7.3,3.4-7.3,7.5l0,10c0,2,1.6,3.5,3.5,3.5h22.9
				c2,0,3.5-1.6,3.5-3.5L30,64.7z"/>
		</g>
		<circle fill="#3F4040" cx="14.9" cy="48.2" r="7.5"/>
	</g>
	<g>
		<g>
			<path fill="#3F4040" d="M103.6,36.3c0-4.1-3.3-7.5-7.3-7.5H81c-4.1,0-7.3,3.4-7.3,7.5l0,10c0,2,1.6,3.5,3.5,3.5h22.9
				c2,0,3.5-1.6,3.5-3.5L103.6,36.3z"/>
		</g>
		<circle fill="#3F4040" cx="88.6" cy="19.8" r="7.5"/>
	</g>
	<g>
		<circle fill="#F0F2F5" stroke="#3F4040" stroke-width="5" stroke-miterlimit="10" cx="52" cy="48" r="17.5"/>
		<circle fill="#3F4040" cx="30.8" cy="48.4" r="3.5"/>
	</g>
	<g>
		<path fill="#3F4040" d="M58.8,54.9c-0.2,0.4-0.7,0.6-1.4,0.6H46.2c-0.7,0-1.1-0.2-1.4-0.6c-0.2-0.4-0.2-0.9,0.2-1.5l4.9-7.8v-3.9
			h-0.6c-0.2,0-0.3-0.1-0.5-0.2c-0.1-0.1-0.2-0.3-0.2-0.4c0-0.2,0.1-0.3,0.2-0.4c0.1-0.1,0.3-0.2,0.5-0.2h5c0.2,0,0.3,0.1,0.4,0.2
			c0.1,0.1,0.2,0.3,0.2,0.4c0,0.2-0.1,0.3-0.2,0.4c-0.1,0.1-0.3,0.2-0.4,0.2h-0.6v3.9l4.9,7.8C59,54,59.1,54.5,58.8,54.9z
			 M55.3,50.5l-2.6-4.2L52.5,46v-0.4v-3.9h-1.3v3.9V46L51,46.3l-2.7,4.2H55.3z"/>
	</g>
	<g>
		<path fill="#3F4040" d="M53.3,22.1c-0.1,0.1-0.3,0.4-0.7,0.7s-0.5,0.5-0.6,0.5c-0.1,0-0.1,0-0.2-0.1L51,22.5
			c-0.2,0.1-0.4,0.2-0.6,0.2c-0.1,0.5-0.1,0.9-0.2,1.2c0,0.1-0.1,0.2-0.2,0.2h-1.4c-0.1,0-0.1,0-0.2-0.1c-0.1,0-0.1-0.1-0.1-0.1
			l-0.2-1.2c-0.2-0.1-0.4-0.1-0.6-0.2l-0.9,0.7c0,0-0.1,0.1-0.1,0.1s-0.1,0-0.2-0.1c-0.7-0.7-1.1-1.1-1.1-1.3c0,0,0-0.1,0.1-0.1
			c0.1-0.1,0.2-0.2,0.3-0.4c0.2-0.2,0.3-0.4,0.4-0.5c-0.1-0.2-0.2-0.4-0.3-0.6l-1.2-0.2c-0.1,0-0.1,0-0.1-0.1s-0.1-0.1-0.1-0.2v-1.4
			c0-0.1,0-0.1,0.1-0.2c0,0,0.1-0.1,0.1-0.1l1.2-0.2c0.1-0.2,0.1-0.4,0.2-0.6c-0.2-0.3-0.4-0.6-0.7-0.9c0-0.1-0.1-0.1-0.1-0.2
			c0-0.1,0-0.1,0.1-0.1c0.1-0.2,0.3-0.4,0.6-0.7c0.3-0.3,0.5-0.5,0.6-0.5c0.1,0,0.1,0,0.2,0.1l0.9,0.7c0.2-0.1,0.4-0.2,0.6-0.2
			c0.1-0.6,0.1-1,0.2-1.2c0-0.1,0.1-0.2,0.2-0.2H50c0.1,0,0.1,0,0.2,0.1c0,0,0.1,0.1,0.1,0.1l0.2,1.2c0.2,0.1,0.4,0.1,0.6,0.2
			l0.9-0.7c0,0,0.1-0.1,0.2-0.1c0.1,0,0.1,0,0.2,0.1c0.7,0.7,1.1,1.1,1.1,1.2c0,0.1,0,0.1-0.1,0.2c-0.1,0.1-0.2,0.2-0.3,0.4
			c-0.2,0.2-0.3,0.4-0.4,0.5c0.1,0.3,0.2,0.5,0.3,0.7l1.2,0.2c0.1,0,0.1,0.1,0.1,0.1c0,0,0.1,0.1,0.1,0.2v1.4c0,0.1,0,0.1-0.1,0.2
			c0,0-0.1,0.1-0.1,0.1l-1.2,0.2c-0.1,0.2-0.1,0.4-0.2,0.6c0.2,0.3,0.4,0.6,0.7,0.9c0,0.1,0.1,0.1,0.1,0.1
			C53.4,22,53.4,22.1,53.3,22.1z M50.7,17.7c-0.4-0.4-0.9-0.6-1.4-0.6c-0.6,0-1,0.2-1.4,0.6c-0.4,0.4-0.6,0.9-0.6,1.4s0.2,1,0.6,1.4
			c0.4,0.4,0.9,0.6,1.4,0.6c0.6,0,1-0.2,1.4-0.6c0.4-0.4,0.6-0.9,0.6-1.4S51.1,18.1,50.7,17.7z M59.3,14.6v1.1
			c0,0.1-0.4,0.1-1.2,0.2c-0.1,0.1-0.1,0.3-0.2,0.4c0.3,0.6,0.4,1,0.4,1.1c0,0,0,0,0,0.1l-1,0.5c0,0-0.2-0.1-0.4-0.4
			c-0.2-0.2-0.3-0.4-0.4-0.5c-0.1,0-0.2,0-0.2,0s-0.1,0-0.2,0c-0.1,0.1-0.2,0.3-0.4,0.5c-0.2,0.2-0.3,0.4-0.4,0.4c0,0-0.3-0.2-1-0.5
			c0,0,0,0,0-0.1c0-0.1,0.1-0.5,0.4-1.1c-0.1-0.1-0.2-0.3-0.2-0.4c-0.8-0.1-1.1-0.1-1.1-0.2v-1.1c0-0.1,0.4-0.2,1.1-0.2
			c0.1-0.2,0.2-0.3,0.2-0.4c-0.3-0.6-0.4-0.9-0.4-1.1c0,0,0,0,0-0.1c0,0,0.1,0,0.3-0.1c0.2-0.1,0.3-0.2,0.5-0.3
			c0.1-0.1,0.2-0.1,0.2-0.1c0,0,0.2,0.1,0.4,0.4c0.2,0.2,0.3,0.4,0.4,0.5c0.1,0,0.2,0,0.2,0s0.1,0,0.2,0c0.3-0.4,0.5-0.7,0.7-0.9
			l0.1,0c0,0,0.3,0.2,1,0.5c0,0,0,0,0,0.1c0,0.1-0.1,0.5-0.4,1.1c0.1,0.1,0.2,0.2,0.2,0.4C58.9,14.4,59.3,14.5,59.3,14.6z
			 M59.3,22.6v1.1c0,0.1-0.4,0.2-1.2,0.2c-0.1,0.1-0.1,0.3-0.2,0.4c0.3,0.6,0.4,0.9,0.4,1.1c0,0,0,0,0,0.1l-1,0.6
			c0,0-0.2-0.1-0.4-0.4c-0.2-0.2-0.3-0.4-0.4-0.5c-0.1,0-0.2,0-0.2,0s-0.1,0-0.2,0c-0.1,0.1-0.2,0.3-0.4,0.5
			c-0.2,0.2-0.3,0.4-0.4,0.4c0,0-0.3-0.2-1-0.6c0,0,0,0,0-0.1c0-0.1,0.1-0.5,0.4-1.1c-0.1-0.1-0.2-0.3-0.2-0.4
			c-0.8-0.1-1.1-0.2-1.1-0.2v-1.1c0-0.1,0.4-0.2,1.1-0.2c0.1-0.1,0.2-0.3,0.2-0.4c-0.3-0.6-0.4-0.9-0.4-1.1c0,0,0,0,0-0.1
			s0.1-0.1,0.3-0.2c0.2-0.1,0.3-0.2,0.5-0.2c0.1-0.1,0.2-0.1,0.2-0.1c0,0,0.2,0.1,0.4,0.4c0.2,0.2,0.3,0.4,0.4,0.5
			c0.1,0,0.2,0,0.2,0s0.1,0,0.2,0c0.3-0.4,0.5-0.7,0.7-0.9l0.1,0c0,0,0.3,0.2,1,0.5c0,0,0,0,0,0.1c0,0.1-0.1,0.5-0.4,1.1
			c0.1,0.1,0.2,0.3,0.2,0.4C58.9,22.4,59.3,22.5,59.3,22.6z M57.3,15.2c0-0.3-0.1-0.5-0.3-0.7c-0.2-0.2-0.4-0.3-0.7-0.3
			s-0.5,0.1-0.7,0.3c-0.2,0.2-0.3,0.4-0.3,0.7s0.1,0.5,0.3,0.7c0.2,0.2,0.4,0.3,0.7,0.3s0.5-0.1,0.7-0.3
			C57.2,15.7,57.3,15.4,57.3,15.2z M57.3,23.1c0-0.3-0.1-0.5-0.3-0.7c-0.2-0.2-0.4-0.3-0.7-0.3s-0.5,0.1-0.7,0.3
			c-0.2,0.2-0.3,0.4-0.3,0.7s0.1,0.5,0.3,0.7c0.2,0.2,0.4,0.3,0.7,0.3s0.5-0.1,0.7-0.3C57.2,23.6,57.3,23.4,57.3,23.1z"/>
	</g>
</g>
</svg>
