<?xml version="1.0" encoding="utf-8"?>
<!-- Generator: Adobe Illustrator 19.1.0, SVG Export Plug-In . SVG Version: 6.00 Build 0)  -->
<svg version="1.2" baseProfile="tiny" id="Layer_1" xmlns="http://www.w3.org/2000/svg" xmlns:xlink="http://www.w3.org/1999/xlink"
	 x="0px" y="0px" viewBox="0 0 93.5 93.5" xml:space="preserve">
<g>
	<circle fill="#3F4040" cx="46.8" cy="46.8" r="46.8"/>
	<path fill="#F0F2F5" d="M69.1,63.3l6.7,6.7c1.8-4.1,1-9.1-2.4-12.5c-2.9-2.9-6.9-3.9-10.6-3L39,30.6c0.9-3.7-0.1-7.7-3-10.6
		c-3.4-3.4-8.4-4.2-12.5-2.4l5.9,5.9l-5.8,5.8l-5.9-5.9c-1.8,4.1-1,9.1,2.4,12.5c2.9,2.9,6.9,3.9,10.6,3l23.9,23.9
		c-0.9,3.7,0.1,7.7,3,10.6c3.4,3.4,8.4,4.2,12.5,2.4l-6.7-6.7L69.1,63.3z"/>
</g>
</svg>
