<?xml version="1.0" encoding="utf-8"?>
<!-- Generator: Adobe Illustrator 19.1.0, SVG Export Plug-In . SVG Version: 6.00 Build 0)  -->
<svg version="1.2" baseProfile="tiny" id="Layer_1" xmlns="http://www.w3.org/2000/svg" xmlns:xlink="http://www.w3.org/1999/xlink"
	 x="0px" y="0px" viewBox="0 0 93.5 93.5" xml:space="preserve">
<g>
	<circle fill="#3F4040" cx="46.8" cy="46.8" r="46.8"/>
	<path fill="#F0F2F5" d="M78.1,39.5c-0.2-0.8-0.9-1.3-1.7-1.5l-19.1-2.8L48.7,18c-0.4-0.7-1.1-1.2-1.9-1.2c-0.8,0-1.6,0.5-1.9,1.2
		l-8.5,17.3L17.2,38c-0.8,0.1-1.5,0.7-1.7,1.5c-0.3,0.8,0,1.6,0.5,2.2l13.8,13.5l-3.3,19c-0.1,0.8,0.2,1.6,0.9,2.1
		c0.4,0.3,0.8,0.4,1.3,0.4c0.3,0,0.7-0.1,1-0.2l17.1-9l17.1,9c0.7,0.4,1.6,0.3,2.3-0.2c0.7-0.5,1-1.3,0.9-2.1l-3.3-19l13.8-13.5
		C78.1,41.1,78.3,40.3,78.1,39.5z M46.8,58.5c-4.6,0-8.3-3.7-8.3-8.3c0-4.6,3.7-8.3,8.3-8.3c4.6,0,8.3,3.7,8.3,8.3
		C55.1,54.8,51.3,58.5,46.8,58.5z"/>
</g>
</svg>
