<?xml version="1.0" encoding="utf-8"?>
<!-- Generator: Adobe Illustrator 19.1.0, SVG Export Plug-In . SVG Version: 6.00 Build 0)  -->
<svg version="1.2" baseProfile="tiny" id="Layer_1" xmlns="http://www.w3.org/2000/svg" xmlns:xlink="http://www.w3.org/1999/xlink"
	 x="0px" y="0px" viewBox="0 0 93.5 93.5" xml:space="preserve">
<g>
	<circle fill="#EE3E6E" cx="46.8" cy="46.8" r="46.8"/>
	<g>
		<path fill="#F0F2F5" d="M69.1,22.3C53.6,29.7,39,11,23.1,18.6c-0.6,0.3-0.7,0.9-0.6,1.5c0,0.2,0,0.3,0.1,0.5
			c6.5,18.5,13.2,36.8,19.7,55.3c0.5,1.6,3.1,0.9,2.5-0.7c-2.5-6.9-5-14-7.5-20.9c0.1,0,0.1-0.1,0.2-0.1c5.6-4.6,11.8-8.2,17.5-12.5
			c6.3-4.9,11.4-10.8,15.8-17.4C71.5,22.9,70.2,21.7,69.1,22.3z"/>
	</g>
</g>
</svg>
