<?xml version="1.0" encoding="utf-8"?>
<!-- Generator: Adobe Illustrator 19.1.0, SVG Export Plug-In . SVG Version: 6.00 Build 0)  -->
<svg version="1.2" baseProfile="tiny" id="Layer_1" xmlns="http://www.w3.org/2000/svg" xmlns:xlink="http://www.w3.org/1999/xlink"
	 x="0px" y="0px" viewBox="0 0 93.5 93.5" xml:space="preserve">
<g>
	<circle fill="#3F4040" cx="46.8" cy="46.8" r="46.8"/>
	<g>
		<path fill="#F0F2F5" d="M75.8,66.4h-1.6v-2.5c0-0.5-0.4-1-1-1h-2.7V44.1c0-0.5-0.4-0.9-0.9-0.9h-3.5c-0.5,0-0.9,0.4-0.9,0.9v18.8
			h-7V44.3c0-0.5-0.4-0.9-0.9-0.9H54c-0.5,0-0.9,0.4-0.9,0.9v18.6H40.3V44.1c0-0.5-0.4-0.9-0.9-0.9H36c-0.5,0-0.9,0.4-0.9,0.9v18.8
			h-7V44.3c0-0.5-0.4-0.9-0.9-0.9h-3.5c-0.5,0-0.9,0.4-0.9,0.9v18.6h-2.7c-0.5,0-1,0.4-1,1v2.5h-1.6c-0.5,0-1,0.4-1,1v3.1
			c0,0.5,0.4,1,1,1h58.1c0.5,0,1-0.4,1-1v-3.1C76.7,66.8,76.3,66.4,75.8,66.4z"/>
		<path fill="#F0F2F5" d="M18.9,40.4h55.6c0,0,0,0,0,0c1,0,1.8-0.8,1.8-1.8c0-0.7-0.4-1.4-1-1.7L61,29l-7.6-4.2l-3.8-2.1
			c-1.6-0.9-4.2-0.9-5.8,0l-4,2.2l0,0l-10.2,5.7L18,37c-0.7,0.4-1.1,1.2-0.9,2.1C17.4,39.8,18.1,40.4,18.9,40.4z"/>
	</g>
</g>
</svg>
