<?xml version="1.0" encoding="utf-8"?>
<!DOCTYPE svg PUBLIC "-//W3C//DTD SVG 1.1//EN" "http://www.w3.org/Graphics/SVG/1.1/DTD/svg11.dtd">
<svg version="1.2" baseProfile="tiny" id="Layer_1" xmlns="http://www.w3.org/2000/svg" xmlns:xlink="http://www.w3.org/1999/xlink"
	 x="0px" y="0px" viewBox="0 0 1601.2 689.4" xml:space="preserve">
<g>
	<path fill="#F0F2F5" d="M394,228c-0.2,9.9,7.6,18.1,17.5,18.4c9.9,0.2,18.1-7.6,18.4-17.5c0.2-9.9-7.6-18.1-17.5-18.4
		C402.5,210.2,394.2,218.1,394,228z"/>
	<path fill="#F0F2F5" d="M468.6,222.1c9.9,0.2,18.1-7.6,18.4-17.5c0.2-9.9-7.6-18.1-17.5-18.4c-9.9-0.2-18.1,7.6-18.4,17.5
		C450.8,213.6,458.6,221.9,468.6,222.1z"/>
	<path fill="#F0F2F5" d="M610.9,169c9.9,0.2,18.1-7.6,18.4-17.5c0.2-9.9-7.6-18.1-17.5-18.4c-9.9-0.2-18.1,7.6-18.4,17.5
		C593.1,160.5,600.9,168.8,610.9,169z"/>
	<path fill="#F0F2F5" d="M344,229.5c0.2-9.9-7.6-18.1-17.6-18.4c-9.9-0.2-18.1,7.6-18.4,17.5c-0.2,9.9,7.6,18.1,17.5,18.4
		C335.5,247.2,343.8,239.3,344,229.5z"/>
	<path fill="#F0F2F5" d="M459.5,168.5c0.2-9.9-7.6-18.1-17.5-18.3c-9.9-0.2-18.1,7.6-18.4,17.5c-0.2,9.9,7.6,18.1,17.5,18.4
		C451.1,186.3,459.3,178.4,459.5,168.5z"/>
	<path fill="#F0F2F5" d="M724,189.8c-9.9-0.2-18.1,7.6-18.4,17.5c-0.2,9.9,7.6,18.1,17.5,18.4c9.9,0.2,18.1-7.6,18.4-17.5
		C741.7,198.2,733.9,190,724,189.8z"/>
	<path fill="#F0F2F5" d="M816.5,294.1c-0.2,9.9,7.6,18.1,17.5,18.4c9.9,0.2,18.1-7.6,18.4-17.5c0.2-9.9-7.6-18.1-17.5-18.4
		C824.9,276.3,816.7,284.2,816.5,294.1z"/>
	<path fill="#F0F2F5" d="M875.1,295.9c-0.2,9.9,7.6,18.1,17.5,18.4c9.9,0.2,18.1-7.6,18.4-17.5c0.2-9.9-7.6-18.1-17.5-18.4
		C883.5,278.1,875.3,286,875.1,295.9z"/>
	<path fill="#F0F2F5" d="M889.9,332.6c-9.9-0.2-18.1,7.6-18.4,17.5c-0.1,6,2.7,11.4,7.2,14.7c-1.2,1-2.3,2-3.2,3.3
		c-3.1-4.7-8.4-7.8-14.5-8c-9.9-0.2-18.1,7.6-18.4,17.5c-0.2,9.9,7.6,18.1,17.5,18.4c6,0.1,11.4-2.8,14.8-7.3
		c3.1,4.7,8.4,7.8,14.5,8c9.9,0.2,18.1-7.6,18.3-17.5c0.1-6-2.7-11.4-7.2-14.7c4-3.2,6.6-8,6.7-13.5
		C907.6,341.1,899.8,332.9,889.9,332.6z"/>
	<path fill="#F0F2F5" d="M883.8,155c0.2-9.9-7.6-18.1-17.5-18.4c-9.9-0.2-18.1,7.6-18.4,17.5c-0.2,9.9,7.6,18.1,17.5,18.4
		C875.4,172.8,883.6,164.9,883.8,155z"/>
	<path fill="#F0F2F5" d="M562.7,232.2c-0.2,9.9,7.6,18.1,17.5,18.4c9.9,0.2,18.2-7.6,18.4-17.5c0.2-9.9-7.6-18.1-17.6-18.4
		C571.2,214.4,562.9,222.3,562.7,232.2z"/>
	<path fill="#F0F2F5" d="M696.6,153.8c-9.9-0.2-18.1,7.6-18.4,17.5c-0.2,9.9,7.6,18.1,17.5,18.4c9.9,0.2,18.1-7.6,18.4-17.5
		C714.4,162.2,706.5,154,696.6,153.8z"/>
	<path fill="#F0F2F5" d="M978.4,280.2c-9.9-0.2-18.1,7.6-18.4,17.5c-0.2,9.9,7.6,18.1,17.5,18.4c9.9,0.2,18.1-7.6,18.3-17.5
		C996.2,288.7,988.3,280.5,978.4,280.2z"/>
	<path fill="#F0F2F5" d="M931.2,426c-1.1,2.2-1.8,4.8-1.8,7.4c-0.2,9.9,7.6,18.1,17.5,18.4c7.9,0.2,14.8-4.9,17.3-12
		c1.1-2.3,1.8-4.8,1.8-7.4c0.2-9.9-7.6-18.1-17.5-18.4C940.6,413.8,933.7,418.8,931.2,426z"/>
	<path fill="#F0F2F5" d="M929.4,379.3c-0.2,9.9,7.6,18.1,17.5,18.4c9.9,0.2,18.1-7.6,18.4-17.5c0.2-9.9-7.6-18.1-17.6-18.4
		C937.9,361.6,929.6,369.4,929.4,379.3z"/>
	<path fill="#F0F2F5" d="M1080.8,319.3c0.2-9.9-7.6-18.1-17.5-18.3c-9.9-0.2-18.1,7.6-18.4,17.5c-0.2,9.9,7.6,18.1,17.5,18.4
		C1072.4,337,1080.6,329.2,1080.8,319.3z"/>
	<path fill="#F0F2F5" d="M233.9,366.2c-0.2-9.9-8.5-17.7-18.4-17.5c-9.9,0.2-17.7,8.4-17.5,18.4c0.2,9.9,8.4,17.8,18.4,17.5
		C226.2,384.3,234.1,376.1,233.9,366.2z"/>
	<path fill="#F0F2F5" d="M83,457.9c0.2,9.9,8.5,17.8,18.4,17.5c9.9-0.2,17.8-8.5,17.5-18.4c-0.2-9.9-8.5-17.8-18.4-17.5
		C90.6,439.8,82.8,448,83,457.9z"/>
	<path fill="#F0F2F5" d="M62.9,458.9c-0.2-9.9-8.5-17.8-18.4-17.5c-9.9,0.2-17.8,8.5-17.5,18.4c0.2,9.9,8.5,17.7,18.4,17.5
		C55.3,477,63.1,468.8,62.9,458.9z"/>
	<path fill="#F0F2F5" d="M60.3,553.8c3.4,4.5,8.8,7.4,14.8,7.3c9.9-0.2,17.8-8.4,17.5-18.4c-0.2-9.9-8.4-17.8-18.4-17.5
		c-6,0.1-11.3,3.3-14.5,8c-0.9-1.2-2-2.3-3.2-3.3c4.4-3.4,7.3-8.7,7.2-14.7c-0.2-9.9-8.5-17.7-18.4-17.5
		c-9.9,0.2-17.8,8.4-17.5,18.3c0.1,5.5,2.8,10.3,6.8,13.5c-4.5,3.4-7.3,8.7-7.2,14.7c0.2,9.9,8.4,17.8,18.3,17.5
		C51.9,561.7,57.2,558.5,60.3,553.8z"/>
	<path fill="#F0F2F5" d="M1354.2,94.9c-0.2,9.9,7.6,18.1,17.5,18.4c9.9,0.2,18.1-7.6,18.4-17.5c0.2-9.9-7.6-18.1-17.5-18.4
		C1362.7,77.1,1354.5,85,1354.2,94.9z"/>
	<path fill="#F0F2F5" d="M1411.2,70.6c-0.2,9.9,7.6,18.1,17.5,18.4c9.9,0.2,18.1-7.6,18.4-17.5c0.2-9.9-7.6-18.1-17.5-18.4
		C1419.7,52.9,1411.5,60.7,1411.2,70.6z"/>
	<path fill="#F0F2F5" d="M1553.6,17.5c-0.2,9.9,7.6,18.1,17.5,18.4c9.9,0.2,18.1-7.6,18.3-17.5c0.2-9.9-7.6-18.1-17.5-18.4
		C1562-0.2,1553.8,7.6,1553.6,17.5z"/>
	<path fill="#F0F2F5" d="M1304.2,96.4c0.2-9.9-7.6-18.1-17.6-18.4c-9.9-0.2-18.1,7.6-18.4,17.5c-0.2,9.9,7.6,18.1,17.5,18.4
		C1295.8,114.1,1304,106.3,1304.2,96.4z"/>
	<path fill="#F0F2F5" d="M1402.2,17.1c-9.9-0.2-18.1,7.6-18.4,17.5c-0.2,9.9,7.6,18.1,17.5,18.4c9.9,0.2,18.1-7.6,18.4-17.5
		C1420,25.6,1412.1,17.3,1402.2,17.1z"/>
	<path fill="#F0F2F5" d="M1522.9,99.1c-0.2,9.9,7.6,18.1,17.5,18.4c9.9,0.2,18.2-7.6,18.4-17.5c0.2-9.9-7.6-18.1-17.6-18.4
		C1531.4,81.4,1523.2,89.2,1522.9,99.1z"/>
	<path fill="#F0F2F5" d="M1158.2,233.9c0.2,9.9,8.4,17.8,18.4,17.5c9.9-0.2,17.8-8.5,17.5-18.4c-0.2-9.9-8.5-17.7-18.4-17.5
		C1165.8,215.8,1158,224,1158.2,233.9z"/>
	<path fill="#F0F2F5" d="M1023.1,325.8c-0.2-9.9-8.5-17.8-18.4-17.5c-9.9,0.2-17.8,8.5-17.5,18.4c0.2,9.9,8.5,17.7,18.4,17.5
		C1015.5,343.9,1023.4,335.7,1023.1,325.8z"/>
	<path fill="#F0F2F5" d="M1572.2,108.4c-9.9-0.2-18.1,7.6-18.4,17.5c-0.2,9.9,7.6,18.1,17.5,18.4c5.7,0.1,10.9-2.5,14.2-6.6
		c0.9,1.2,1.9,2.3,3,3.2c-4.3,3.2-7.1,8.2-7.3,14c-0.1,3.8,1.1,7.4,3.1,10.4c0.7,1.6,1.7,3,2.8,4.3c-0.9,0.8-1.8,1.6-2.6,2.5
		c-3.2-4.2-8.2-7-13.8-7.2c-9.9-0.2-18.1,7.6-18.4,17.5c-0.1,5.9,2.6,11.2,7,14.6c-0.9,0.7-1.7,1.5-2.5,2.4c-3.2-4-8.1-6.7-13.6-6.9
		c-5.5-0.1-10.5,2.3-13.9,6.2c-0.8-1-1.6-1.9-2.6-2.7c4.3-3.2,7.3-8.2,7.4-14c0.1-2.7-0.5-5.3-1.5-7.7c2.1,0.9,4.4,1.5,6.9,1.6
		c7.9,0.2,14.8-4.9,17.3-12c1.1-2.3,1.8-4.8,1.8-7.4c0.2-9.9-7.6-18.1-17.5-18.4c-8-0.2-14.9,4.9-17.4,12c-1.1,2.2-1.7,4.7-1.8,7.4
		c-0.1,2.7,0.5,5.3,1.5,7.7c-2.1-0.9-4.4-1.5-6.9-1.5c-4.9-0.1-9.4,1.8-12.8,4.9c-1.7,1.1-3.3,2.4-4.6,4c-1.5-2.1-3.5-3.8-5.7-5
		c-3.1-2.7-7.1-4.4-11.5-4.5c-9.9-0.2-18.1,7.6-18.4,17.5c-0.2,7.1,3.8,13.3,9.7,16.3c0.1,0.1,0.1,0.1,0.2,0.2
		c-1.2,0.9-2.3,1.9-3.2,3c-3.2-4.3-8.2-7.1-13.9-7.3c-5.6-0.1-10.5,2.3-13.9,6.2c-0.8-1.2-1.8-2.2-2.9-3.2c4-3.2,6.6-8,6.8-13.5
		c0.1-5.8-2.6-11-6.8-14.4c1.2-0.8,2.3-1.8,3.3-2.9c3.2,4.3,8.2,7.2,13.9,7.3c9.9,0.2,18.1-7.6,18.4-17.5
		c0.2-9.9-7.6-18.1-17.5-18.4c-5.4-0.1-10.2,2.2-13.6,5.9c-0.8-1.1-1.8-2.2-2.9-3.1c3.8-3.2,6.3-7.9,6.4-13.3
		c0.2-9.9-7.6-18.1-17.5-18.4c-9.9-0.2-18.1,7.6-18.4,17.5c-0.1,5.7,2.5,10.7,6.5,14.1c-1.3,1-2.4,2.2-3.3,3.6
		c-3.2-4.1-8.1-6.8-13.7-7c-5.4-0.1-10.2,2.2-13.5,5.8c-3.1-4.8-8.5-8-14.6-8.2c-6-0.1-11.3,2.7-14.7,7.1c-0.8-1-1.7-1.9-2.6-2.7
		c4.3-3.2,7.2-8.2,7.3-13.9c0.2-9.9-7.6-18.1-17.5-18.4c-5.8-0.1-10.9,2.5-14.3,6.6c-3.2-4.3-8.2-7.1-13.9-7.3
		c-9.9-0.2-18.1,7.6-18.4,17.5c-0.2,9.9,7.6,18.1,17.5,18.4c5.7,0.1,10.9-2.5,14.2-6.6c0.9,1.2,1.9,2.3,3,3.2
		c-4.3,3.2-7.1,8.2-7.3,14c-0.1,5.7,2.5,10.8,6.5,14.2c-1.2,0.9-2.3,1.9-3.2,3c-3.2-4.2-8.2-7-13.8-7.2c-9.9-0.2-18.1,7.6-18.4,17.5
		c-0.1,5.9,2.6,11.2,7,14.6c-0.9,0.7-1.7,1.5-2.5,2.4c-3.2-4-8.1-6.7-13.6-6.9c-5.5-0.1-10.5,2.3-13.9,6.2c-0.8-1-1.6-1.9-2.6-2.7
		c4.3-3.2,7.3-8.2,7.4-14c0.1-4.2-1.3-8.1-3.6-11.2c2.8,1.9,6.1,3.1,9.7,3.1c9.9,0.2,18.1-7.6,18.4-17.5c0.2-9.9-7.6-18.1-17.5-18.4
		c-9.9-0.2-18.1,7.6-18.4,17.5c-0.1,4.2,1.2,8,3.6,11.1c-2.8-1.9-6.1-3.1-9.7-3.1c-9.9-0.2-18.2,7.6-18.4,17.5
		c-0.1,5.7,2.5,10.8,6.6,14.2c-1,0.7-1.8,1.5-2.6,2.4c-3.4-4.3-8.7-7-14.6-6.9c-5.8,0.1-11,3.1-14.1,7.5c-3.2-5.5-9.2-9.1-15.9-8.9
		c-9.9,0.2-17.7,8.4-17.5,18.3c0.2,9.9,8.5,17.8,18.4,17.5c5.9-0.1,11-3.1,14.1-7.5c3.2,5.5,8.6,9.1,15.4,8.9c1.1,0,1.6-0.2,2.6-0.4
		v0.1c1,0,0.8-0.1,1-0.1c3.7-0.8,7.2-2.8,9.6-5.5c0.7,0.9,1.6,1.7,2.5,2.5c-4.5,3.2-7.4,8.3-7.6,14.2c-0.2,9.9,7.6,18.1,17.6,18.4
		c5.8,0.1,10.9-2.5,14.3-6.6c0.7,1,1.5,1.8,2.4,2.6c-4.7,3.1-7.9,8.4-8,14.5c-0.1,5.5,2.3,10.4,6,13.7c-1.2,0.8-2.3,1.8-3.3,2.9
		c-1.3-1.3-2.9-2.5-4.6-3.3c-2.8-2-6.2-3.3-9.9-3.3c-5.6-0.1-10.5,2.3-13.9,6.2c-0.7-0.8-1.4-1.6-2.2-2.3c4.6-3.2,7.2-8.4,7.3-14.4
		c0.2-7.4-4.2-13.9-11.2-16.8v0.4c-2-1.3-4.9-2-8-1.9c-9.9,0.2-17.5,8.4-17.3,18.4c0.2,7.7,5.4,14.2,12.3,16.5
		c-6.2,2.9-10.4,9.3-10.2,16.6c0.1,2.6,0.7,5.1,1.8,7.3c0.1,2.2,0.7,4.3,1.5,6.2c-0.3,0.4-0.6,0.8-0.8,1.2
		c-3.4-3.6-8.2-5.9-13.5-5.8c-5.6,0.1-10.5,2.9-13.7,7c-0.9-1.3-2.1-2.5-3.3-3.6c4-3.4,6.6-8.4,6.5-14.1
		c-0.2-9.9-8.5-17.8-18.4-17.5c-9.9,0.2-17.8,8.4-17.5,18.4c0.1,5.4,2.6,10.1,6.4,13.3c-1.1,0.9-2.1,1.9-2.9,3.1
		c-3.4-3.7-8.2-6-13.6-5.8c-9.9,0.2-17.8,8.4-17.5,18.4c0.2,9.9,8.5,17.8,18.4,17.5c5.8-0.1,10.8-3,13.9-7.3c1,1.1,2.1,2.1,3.3,2.9
		c-4.2,3.4-6.9,8.6-6.8,14.4c0.1,5.5,2.8,10.3,6.8,13.5c-1.1,0.9-2.1,2-2.9,3.2c-3.4-3.9-8.3-6.4-13.9-6.2c-5.8,0.1-10.7,3-13.9,7.3
		c-0.9-1.2-2-2.2-3.2-3c4.1-3.4,6.8-8.5,6.7-14.3c-0.2-9.9-8.5-17.8-18.4-17.5c-5.8,0.1-10.8,3-13.9,7.3c-3.4-4.1-8.5-6.8-14.2-6.6
		c-9.9,0.2-17.8,8.4-17.5,18.4c0,0.9,0.1,1.7,0.3,2.5c0.1,5,2.3,9.5,5.7,12.7c-0.8,0.8-1.5,1.6-2.1,2.5c-3.4-4.4-8.7-7.3-14.7-7.1
		c-4.8,0.1-9.1,2.1-12.2,5.2c-3-5.5-8.7-9.3-15.4-9.4c-7-0.2-13.2,3.7-16.3,9.6c-3.2-2.6-7.3-4.1-11.7-4
		c-9.9,0.2-17.8,8.4-17.5,18.3c0.1,4.2,1.7,8,4.2,11c-0.7,0.6-1.3,1.2-1.8,1.9c-3.2-4.3-8.2-7.1-13.9-7.3
		c-9.9-0.2-18.1,7.6-18.4,17.5c-0.2,9.9,7.6,18.1,17.5,18.4c5.4,0.1,10.3-2.3,13.7-6.1c0.6,1.3,1.4,2.5,2.3,3.7
		c-3.6,3.2-5.9,7.7-6,12.9c-0.1,3.8,1.1,7.4,3.1,10.4c0.7,1.6,1.7,3,2.8,4.3c-0.9,0.8-1.8,1.6-2.6,2.5c-3.2-4.2-8.2-7-13.8-7.2
		c-9.9-0.2-18.1,7.6-18.4,17.5c-0.1,5.9,2.6,11.2,7,14.6c-0.9,0.7-1.7,1.5-2.5,2.4c-3.2-4-8.1-6.7-13.6-6.9
		c-5.6-0.1-10.5,2.3-13.9,6.2c-0.8-1-1.6-1.9-2.6-2.7c4.3-3.2,7.3-8.2,7.4-14c0.2-9.9-7.6-18.1-17.5-18.4c-4.9-0.1-9.4,1.8-12.8,4.9
		c-1.7,1.1-3.3,2.4-4.6,4c-1.5-2-3.5-3.8-5.7-5c-3.1-2.7-7.1-4.4-11.5-4.5c-5.8-0.1-11,2.5-14.4,6.7c-0.1-0.1-0.3-0.3-0.4-0.4
		c4.7-3.1,7.9-8.4,8.1-14.6c0.2-9.9-7.6-18.1-17.5-18.4c-4-0.1-7.6,1.1-10.6,3.2c-1.2,0.6-2.3,1.4-3.3,2.3c-0.8-1-1.6-1.9-2.6-2.7
		c3.8-3.2,6.3-7.9,6.4-13.3c0.2-9.9-7.6-18.1-17.5-18.4c-2.2-0.1-4.4,0.3-6.4,1c0,0,0,0-0.1,0c-1.9,0.7-3.7,1.7-5.3,3c0,0,0,0,0,0
		c-0.5,0.4-0.9,0.8-1.4,1.2c-0.1,0.1-0.2,0.2-0.3,0.4c-0.3,0.3-0.6,0.7-0.9,1c-0.1,0.1-0.2,0.2-0.3,0.3c-0.9-1.3-2-2.4-3.3-3.4
		c4.3-3.2,7.2-8.2,7.3-13.9c0.1-5.8-2.5-10.9-6.7-14.3c1.4-1,2.6-2.2,3.6-3.5c3.2,4.6,8.3,7.7,14.3,7.8c9.9,0.2,18.1-7.6,18.4-17.5
		c0.2-9.9-7.6-18.1-17.5-18.3c-6-0.1-11.3,2.7-14.7,7.1c-1-1.4-2.1-2.6-3.5-3.7c4.3-3.2,7.2-8.2,7.3-13.9
		c0.2-9.9-7.6-18.1-17.5-18.4c-5.8-0.1-10.9,2.5-14.3,6.6c-3.2-4.3-8.2-7.2-13.9-7.3c-9.9-0.2-18.1,7.6-18.4,17.5
		c-0.1,5.8,2.5,10.9,6.6,14.3c-1.2,0.9-2.3,1.9-3.2,3c-3.2-4.3-8.2-7.1-13.9-7.3c-5.6-0.1-10.5,2.3-13.9,6.2
		c-0.8-1.2-1.8-2.2-2.9-3.2c4-3.2,6.6-8,6.8-13.5c0.1-5.8-2.6-11-6.8-14.4c1.2-0.8,2.3-1.8,3.3-2.9c3.2,4.3,8.2,7.2,13.9,7.3
		c9.9,0.2,18.1-7.6,18.4-17.5c0.2-9.9-7.6-18.1-17.5-18.4c-5.4-0.1-10.2,2.2-13.6,5.9c-0.8-1.1-1.8-2.2-2.9-3.1
		c3.8-3.2,6.3-7.9,6.4-13.3c0.2-9.9-7.6-18.1-17.5-18.4c-9.9-0.2-18.1,7.6-18.4,17.5c-0.1,5.7,2.5,10.7,6.5,14.1
		c-1.3,1-2.4,2.2-3.3,3.6c-3.2-4.1-8.1-6.8-13.7-7c-5.4-0.1-10.2,2.2-13.5,5.8c-0.7-1-1.5-2-2.4-2.9c2.9-3.1,4.7-7.2,4.8-11.8
		c0.2-7.3-4.1-13.7-10.3-16.6c6.9-2.4,11.9-8.8,12.1-16.5c0.2-9.9-7.6-18.1-17.5-18.4c-9.9-0.2-18.1,7.6-18.4,17.5
		c-0.2,7.3,4.1,13.7,10.3,16.6c-2.4,0.8-4.6,2.1-6.4,3.9c-3.2-4.6-8.4-7.7-14.4-7.8c-5.8-0.1-10.9,2.5-14.3,6.6
		c-3.2-4.3-8.2-7.1-13.9-7.3c-9.9-0.2-18.1,7.6-18.4,17.5c-0.2,9.9,7.6,18.1,17.5,18.4c5.7,0.1,10.9-2.5,14.3-6.6
		c0.9,1.2,1.9,2.3,3,3.2c-4.3,3.2-7.1,8.2-7.3,14c-0.1,3.8,1.1,7.4,3.1,10.4c0.7,1.6,1.7,3,2.8,4.3c-0.9,0.8-1.8,1.6-2.6,2.5
		c-3.2-4.2-8.2-7-13.8-7.2c-9.9-0.2-18.1,7.6-18.4,17.5c-0.1,5.9,2.6,11.2,7,14.6c-0.9,0.7-1.7,1.5-2.5,2.4c-3.2-4-8.1-6.7-13.6-6.9
		c-5.6-0.1-10.5,2.3-13.9,6.2c-0.8-1-1.6-1.9-2.6-2.7c4.3-3.2,7.3-8.2,7.4-14c0.1-2.7-0.5-5.3-1.5-7.7c2.1,0.9,4.4,1.5,6.9,1.6
		c7.9,0.2,14.8-4.9,17.3-12c1.1-2.3,1.8-4.8,1.8-7.4c0.2-9.9-7.6-18.1-17.5-18.4c-8-0.2-14.9,4.9-17.4,12c-1.1,2.2-1.7,4.7-1.8,7.4
		c-0.1,2.7,0.5,5.3,1.5,7.7c-2.1-0.9-4.4-1.5-6.9-1.5c-4.9-0.1-9.4,1.8-12.8,4.9c-1.7,1.1-3.3,2.4-4.6,4c-1.5-2.1-3.5-3.8-5.7-5
		c-3.1-2.7-7.1-4.4-11.5-4.5c-9.9-0.2-18.1,7.6-18.4,17.5c-0.2,7.1,3.8,13.3,9.7,16.3c0.1,0.1,0.1,0.1,0.2,0.2
		c-1.2,0.9-2.3,1.9-3.2,3c-3.2-4.3-8.2-7.1-13.9-7.3c-5.6-0.1-10.5,2.3-13.9,6.2c-0.8-1.2-1.8-2.2-2.9-3.2c4-3.2,6.6-8,6.8-13.5
		c0.1-5.8-2.6-11-6.8-14.4c1.2-0.8,2.3-1.8,3.3-2.9c3.2,4.3,8.2,7.2,13.9,7.3c9.9,0.2,18.1-7.6,18.4-17.5
		c0.2-9.9-7.6-18.1-17.5-18.4c-5.4-0.1-10.2,2.2-13.6,5.9c-0.8-1.1-1.8-2.2-2.9-3.1c3.8-3.2,6.3-7.9,6.4-13.3
		c0.2-9.9-7.6-18.1-17.5-18.4c-9.9-0.2-18.1,7.6-18.4,17.5c-0.1,5.7,2.5,10.7,6.5,14.1c-1.3,1-2.4,2.2-3.3,3.6
		c-3.2-4.1-8.1-6.8-13.7-7c-5.4-0.1-10.2,2.2-13.5,5.8c-3.1-4.8-8.5-8-14.6-8.2c-6-0.1-11.3,2.7-14.7,7.1c-0.8-1-1.7-1.9-2.6-2.7
		c4.3-3.2,7.2-8.2,7.3-13.9c0.2-9.9-7.6-18.1-17.5-18.4c-5.8-0.1-10.9,2.5-14.3,6.6c-3.2-4.3-8.2-7.1-13.9-7.3
		c-9.9-0.2-18.1,7.6-18.4,17.5c-0.2,9.9,7.6,18.1,17.5,18.4c5.7,0.1,10.9-2.5,14.2-6.6c0.9,1.2,1.9,2.3,3,3.2
		c-4.3,3.2-7.1,8.2-7.3,14c-0.1,5.7,2.5,10.8,6.5,14.2c-1.2,0.9-2.3,1.9-3.2,3c-3.2-4.2-8.2-7-13.8-7.2c-9.9-0.2-18.1,7.6-18.4,17.5
		c-0.1,5.9,2.6,11.2,7,14.6c-0.9,0.7-1.7,1.5-2.5,2.4c-3.2-4-8.1-6.7-13.6-6.9c-5.6-0.1-10.5,2.3-13.9,6.2c-0.8-1-1.6-1.9-2.6-2.7
		c4.3-3.2,7.3-8.2,7.4-14c0.1-4.2-1.3-8.1-3.6-11.2c2.8,1.9,6.1,3.1,9.7,3.1c9.9,0.2,18.1-7.6,18.4-17.5c0.2-9.9-7.6-18.1-17.5-18.4
		c-9.9-0.2-18.1,7.6-18.4,17.5c-0.1,4.2,1.3,8,3.6,11.1c-2.8-1.9-6.1-3.1-9.7-3.1c-9.9-0.2-18.2,7.6-18.4,17.5
		c-0.1,5.7,2.5,10.8,6.6,14.2c-1,0.7-1.8,1.5-2.6,2.4c-3.4-4.3-8.7-7-14.5-6.9c-5.8,0.1-11,3.1-14.1,7.5c-3.2-5.5-9.2-9.1-15.9-8.9
		c-9.9,0.2-17.7,8.4-17.5,18.3c0.2,9.9,8.5,17.8,18.4,17.5c5.9-0.1,11-3.1,14.1-7.5c3.2,5.5,8.7,9.1,15.5,8.9c1.1,0,1.7-0.2,2.7-0.4
		v0.1c0,0,0.7-0.1,0.8-0.1c3.7-0.8,7.1-2.8,9.6-5.5c0.7,0.9,1.6,1.7,2.5,2.5c-4.5,3.2-7.4,8.3-7.6,14.2c-0.2,9.9,7.6,18.1,17.6,18.4
		c5.8,0.1,10.9-2.5,14.3-6.6c0.7,1,1.5,1.8,2.4,2.6c-4.7,3.1-7.9,8.4-8,14.5c-0.1,5.5,2.3,10.4,6,13.7c-1.2,0.8-2.3,1.8-3.3,2.9
		c-1.3-1.3-2.9-2.5-4.6-3.3c-2.8-2-6.2-3.3-9.9-3.3c-5.6-0.1-10.5,2.3-13.9,6.2c-0.7-0.8-1.4-1.6-2.2-2.3c4.6-3.2,7.3-8.4,7.4-14.4
		c0.2-7.4-4.1-13.9-11.1-16.8v0.4c-2-1.3-5-2-8.1-1.9c-9.9,0.2-17.5,8.5-17.3,18.4c0.2,7.7,5.3,14.2,12.2,16.5
		c-6.2,2.9-10.4,9.3-10.2,16.6c0.1,4.6,1.9,8.7,4.8,11.8c-0.9,0.9-1.7,1.9-2.4,2.9c-3.4-3.6-8.2-5.9-13.5-5.8
		c-5.6,0.1-10.5,2.9-13.7,7c-0.9-1.3-2.1-2.5-3.3-3.6c4-3.4,6.6-8.5,6.5-14.1c-0.2-9.9-8.5-17.8-18.4-17.5
		c-9.9,0.2-17.8,8.4-17.5,18.4c0.1,5.4,2.6,10.1,6.4,13.3c-1.1,0.9-2.1,1.9-2.9,3.1c-3.4-3.7-8.2-6-13.6-5.8
		c-9.9,0.2-17.8,8.4-17.5,18.4c0.2,9.9,8.5,17.8,18.4,17.5c5.8-0.1,10.8-3,13.9-7.3c1,1.1,2.1,2.1,3.3,2.9
		c-4.2,3.4-6.9,8.6-6.8,14.4c0.1,5.5,2.8,10.3,6.8,13.5c-1.1,0.9-2.1,2-2.9,3.2c-3.4-3.9-8.3-6.4-13.9-6.2c-5.8,0.1-10.7,3-13.9,7.3
		c-0.9-1.2-2-2.2-3.2-3c4.1-3.4,6.8-8.5,6.6-14.3c-0.2-9.9-8.5-17.8-18.4-17.5c-5.8,0.1-10.8,3-13.9,7.3c-3.4-4.1-8.5-6.8-14.3-6.6
		c-9.9,0.2-17.8,8.4-17.5,18.4c0.1,5.8,3,10.8,7.3,13.9c-1.3,1.1-2.5,2.3-3.5,3.7c-3.4-4.4-8.7-7.3-14.7-7.1
		c-9.9,0.2-17.8,8.4-17.5,18.3c0.2,9.9,8.5,17.8,18.4,17.5c6-0.1,11.2-3.2,14.3-7.8c1,1.4,2.2,2.5,3.6,3.5
		c-4.1,3.4-6.8,8.5-6.7,14.3c0.1,5.8,3,10.7,7.3,13.9c-1.2,1-2.3,2.2-3.3,3.4c-3.4-4.3-8.6-7-14.5-6.9c-9.9,0.2-17.8,8.4-17.5,18.4
		c0.1,6.1,3.3,11.3,8,14.5c-1.1,0.8-2,1.7-2.9,2.8c-3.4-3.6-8.1-5.8-13.4-5.7c-9.9,0.2-17.8,8.4-17.5,18.4
		c0.1,5.4,2.7,10.1,6.5,13.3c-3.8,3.4-6.3,8.3-6.1,13.8c0.2,9.9,8.5,17.8,18.4,17.5c5.5-0.1,10.3-2.8,13.5-6.7
		c0.8,0.9,1.7,1.8,2.7,2.5c-4.1,3.4-6.8,8.5-6.6,14.3c0.1,5.8,3,10.8,7.3,13.9c-1.1,0.9-2.2,2-3,3.2c-3.4-4.1-8.5-6.8-14.3-6.7
		c-5.8,0.1-10.8,3-14,7.3c-0.8-0.8-1.7-1.6-2.6-2.2c4.7-3.3,7.8-8.9,7.6-15.1c-0.2-9.9-8.5-17.8-18.4-17.5
		c-6.1,0.1-11.5,3.4-14.6,8.2c-3.4-4.3-8.7-6.9-14.6-6.8c-8.1,0.2-14.9,5.4-16.9,13.4H0v36h1601l0.2-580.2
		c-5.8-0.1-11.7,2.4-15.1,6.5C1582.9,111.5,1577.9,108.5,1572.2,108.4z M596.3,462.2c3.2-3.2,5.2-7.5,5.3-12.3c0.1-5-1.8-9.6-5-12.9
		c1.1-0.9,2.1-2,2.9-3.1c3.1,2.7,7,4.3,11.4,4.4c4.4,0.1,8.5-1.4,11.7-4c0.6,1.2,1.4,2.2,2.3,3.2c-2.7,3.1-4.4,7.1-4.5,11.5
		c-0.1,4.9,1.7,9.4,4.8,12.7c-1,0.7-1.8,1.5-2.6,2.4c-3-2.4-6.7-3.9-10.8-4c-4.8-0.1-9.1,1.7-12.4,4.6
		C598.4,463.8,597.4,463,596.3,462.2z M1076.4,391.4c0.8,1,1.7,1.9,2.7,2.8c-4.8,3.1-8,8.5-8.1,14.6c-0.1,5.7,2.5,10.7,6.5,14.1
		c-0.7,0.5-1.3,1.1-1.9,1.8c-3.3-3.1-7.7-5-12.7-4.9c0,0,0,0-0.1,0c-0.8-0.1-1.6-0.2-2.4-0.2c-5.4-0.1-10.2,2.2-13.5,5.8
		c-0.3-0.4-0.6-0.8-0.8-1.1c4.2-3.4,6.9-8.6,6.8-14.4c-0.2-7.7-5.1-14.1-11.9-16.5c1.8-0.9,3.5-2,4.9-3.4c3.1,5.7,9.2,9.6,16.2,9.4
		C1068.1,399.1,1073.3,396,1076.4,391.4z M1582.8,301.3c0.6,1.2,1.4,2.2,2.3,3.2c-2.7,3.1-4.4,7.1-4.5,11.5
		c-0.1,4.9,1.7,9.4,4.8,12.7c-1,0.7-1.8,1.5-2.6,2.4c-3-2.4-6.7-3.9-10.8-4c-4.8-0.1-9.1,1.7-12.4,4.6c-0.9-1-1.9-1.8-3-2.6
		c3.2-3.2,5.2-7.5,5.3-12.3c0.1-5-1.8-9.6-5-12.9c1.1-0.9,2.1-2,2.9-3.1c3.1,2.7,7,4.3,11.4,4.4
		C1575.5,305.4,1579.6,303.8,1582.8,301.3z"/>
</g>
</svg>
