<?xml version="1.0" encoding="utf-8"?>
<!-- Generator: Adobe Illustrator 19.1.0, SVG Export Plug-In . SVG Version: 6.00 Build 0)  -->
<svg version="1.2" baseProfile="tiny" id="Layer_1" xmlns="http://www.w3.org/2000/svg" xmlns:xlink="http://www.w3.org/1999/xlink"
	 x="0px" y="0px" viewBox="0 0 93.5 93.5" xml:space="preserve">
<g>
	<circle fill="#3F4040" cx="46.8" cy="46.8" r="46.8"/>
	<path fill="#F0F2F5" d="M58.6,16.8H34.9c-2.4,0-4.3,1.9-4.3,4.3v51.4c0,2.4,1.9,4.3,4.3,4.3h23.8c2.4,0,4.3-1.9,4.3-4.3V21.1
		C63,18.7,61,16.8,58.6,16.8z M46.8,74.8c-1.6,0-2.8-1.3-2.8-2.8c0-1.6,1.3-2.8,2.8-2.8c1.6,0,2.8,1.3,2.8,2.8
		C49.6,73.6,48.3,74.8,46.8,74.8z M60.3,65.7c0,0.9-0.7,1.6-1.6,1.6H34.9c-0.9,0-1.6-0.7-1.6-1.6V21.1c0-0.9,0.7-1.6,1.6-1.6h23.8
		c0.9,0,1.6,0.7,1.6,1.6V65.7z"/>
</g>
</svg>
