<?xml version="1.0" encoding="utf-8"?>
<!-- Generator: Adobe Illustrator 19.1.0, SVG Export Plug-In . SVG Version: 6.00 Build 0)  -->
<svg version="1.2" baseProfile="tiny" id="Layer_1" xmlns="http://www.w3.org/2000/svg" xmlns:xlink="http://www.w3.org/1999/xlink"
	 x="0px" y="0px" viewBox="0 0 90 90" xml:space="preserve">
<g>
	<circle fill="#3F4040" cx="45" cy="45" r="45"/>
	<g>
		<path fill="#F0F2F5" d="M76.9,50.7c-7.2-5.3-15-9.6-23-13.8c-0.1,0-0.2,0-0.3-0.1c-0.2,0.2-0.3,0.4-0.6,0.7l-1.9-0.8
			c-0.4-0.2-0.6-0.7-0.3-1.1l1.8-2.8c0.2-0.3,0.6-0.4,0.9-0.3c1.2,0.4,2.2-0.1,3.1-1.5c1.1-1.8,0.9-3.1-0.8-4.2
			c-4.3-2.8-8.7-5.5-13.1-8.3c-0.5-0.3-1.1-0.5-1.4-0.6c-1.6,0-2.8,1.1-3.3,2.6c-0.3,0.8-0.2,1.5,0.3,2.2c0.2,0.3,0.2,0.6,0,0.9
			c-1.8,2.8-3.5,5.5-5.3,8.2c-0.4,0.6-1.4,1.8-1.5,1.8c-1.4-0.5-2.7,0.3-3.6,2c-0.7,1.4-0.3,2.6,1.1,3.7c4.3,2.8,8.7,5.5,13,8.2
			c1,0.6,2,1,3.1,0.3s1.7-1.7,2-3.2c0-0.3,0-0.5-0.2-0.7c-0.1-0.2-0.3-0.4-0.4-0.6c-0.2-0.3-0.3-0.7,0-0.9l2-3.2
			c0.3-0.4,0.8-0.5,1.1-0.2c0.7,0.6,1.5,0.8,1.4,1.9c-0.1,0.3,0.1,0.6,0.3,0.8c7.2,5.4,14.4,10.7,22.4,15c1.7,0.8,3.4,0.5,4.9-0.3
			c0.3-0.1,0.4-0.5,0.4-0.8C79.1,53.6,78.5,51.9,76.9,50.7z"/>
		<path fill="#F0F2F5" d="M51.5,66.5h-2.1c-0.3,0-0.7-0.3-0.7-0.7c0-2.3-0.8-3.3-3-3.3c-6.7-0.1-13.3,0-20,0c-0.3,0-0.6,0.1-0.8,0.1
			c-1.4,0.3-2.1,1.2-2.2,2.5c0,0.3,0,0.5,0,0.8c0,0.4-0.3,0.8-0.7,0.8h-2.3c-0.4,0-0.7,0.3-0.7,0.7v4.2c0,0.3,0.3,0.7,0.7,0.7
			c0.1,0,0.1,0,0.2,0l0,0h31.7l0,0h0.1c0.3,0,0.7-0.3,0.7-0.7v-4.2C52.2,66.8,52,66.5,51.5,66.5z"/>
	</g>
</g>
</svg>
