<?xml version="1.0" encoding="utf-8"?>
<!-- Generator: Adobe Illustrator 19.1.0, SVG Export Plug-In . SVG Version: 6.00 Build 0)  -->
<svg version="1.2" baseProfile="tiny" id="Layer_1" xmlns="http://www.w3.org/2000/svg" xmlns:xlink="http://www.w3.org/1999/xlink"
	 x="0px" y="0px" viewBox="0 0 93.5 93.5" xml:space="preserve">
<g>
	<circle fill="#3F4040" cx="46.8" cy="46.8" r="46.8"/>
	<g>
		<path fill="#F0F2F5" d="M66,59.3H26c-2.1,0-3.7,1.7-3.7,3.7v12.5c0,0.7,0.6,1.2,1.2,1.2h45c0.7,0,1.2-0.6,1.2-1.2V63
			C69.7,60.9,68.1,59.3,66,59.3z"/>
		<path fill="#F0F2F5" d="M76.9,24.6l-7.5-7.5c-0.5-0.5-1.3-0.5-1.8,0l-7.5,7.5c-0.5,0.5-0.5,1.3,0,1.8l7.5,7.5
			c0.2,0.2,0.6,0.4,0.9,0.4c0.3,0,0.6-0.1,0.9-0.4l7.5-7.5C77.4,25.9,77.4,25.1,76.9,24.6z"/>
		<g>
			<path fill="#F0F2F5" d="M66,49.3c-0.7,0-1.2-0.6-1.2-1.2c0-2-0.3-4.1-1-6c-0.2-0.7,0.1-1.4,0.8-1.6c0.7-0.2,1.4,0.1,1.6,0.8
				c0.8,2.2,1.1,4.5,1.1,6.8C67.2,48.7,66.7,49.3,66,49.3z"/>
		</g>
		<path fill="#F0F2F5" d="M68.1,30.9l-5-5c-0.5-0.5-1.3-0.5-1.8,0l-6.2,6.2c0,0,0,0,0,0c-0.5,0.5-0.5,1.3,0,1.8
			c0.2,0.1,0.3,0.3,0.5,0.3c0.7,0.5,2.7,2.7,4.4,4.6c0.2,0.3,0.6,0.4,0.9,0.4c0,0,0,0,0,0c0.3,0,0.6-0.1,0.9-0.4l6.2-6.2
			C68.6,32.1,68.6,31.4,68.1,30.9z"/>
		<path fill="#F0F2F5" d="M66,46.8h-6.3c-0.6-6.6-5.9-11.8-12.4-12.4v-4.8l5,0.8c0.1,0,0.1,0,0.2,0c0.6,0,1.1-0.4,1.2-0.9
			c0.2-0.6-0.2-1.3-0.8-1.5c-2.2-0.8-4.5-1.1-6.8-1.1c-11.7,0-21.2,9.5-21.2,21.2v7.5c0,0.7,0.6,1.2,1.2,1.2h40
			c0.7,0,1.2-0.6,1.2-1.2V48C67.2,47.3,66.7,46.8,66,46.8z"/>
	</g>
</g>
</svg>
