<?xml version="1.0" encoding="utf-8"?>
<!-- Generator: Adobe Illustrator 19.1.0, SVG Export Plug-In . SVG Version: 6.00 Build 0)  -->
<svg version="1.2" baseProfile="tiny" id="Layer_1" xmlns="http://www.w3.org/2000/svg" xmlns:xlink="http://www.w3.org/1999/xlink"
	 x="0px" y="0px" viewBox="0 0 93.5 93.5" xml:space="preserve">
<g>
	<circle fill="#3F4040" cx="46.8" cy="46.8" r="46.8"/>
	<g>
		<path fill="#F0F2F5" d="M26.8,21.8c-2,0-3.3,1.3-3.3,3.3v3.3h6.7v-3.3C30.1,23.1,28.8,21.8,26.8,21.8z"/>
		<path fill="#F0F2F5" d="M36.8,21.8c-2,0-3.3,1.3-3.3,3.3v3.3h6.7v-3.3C40.1,23.1,38.8,21.8,36.8,21.8z"/>
		<path fill="#F0F2F5" d="M46.8,21.8c-2,0-3.3,1.3-3.3,3.3v3.3h6.7v-3.3C50.1,23.1,48.8,21.8,46.8,21.8z"/>
		<path fill="#F0F2F5" d="M56.8,21.8c-2,0-3.3,1.3-3.3,3.3v3.3h6.7v-3.3C60.1,23.1,58.8,21.8,56.8,21.8z"/>
		<path fill="#F0F2F5" d="M66.8,21.8c-2,0-3.3,1.3-3.3,3.3v3.3h6.7v-3.3C70.1,23.1,68.8,21.8,66.8,21.8z"/>
		<path fill="#F0F2F5" d="M56.8,71.7c2,0,3.3-1.3,3.3-3.3v-3.3h-6.7v3.3C53.4,70.4,54.8,71.7,56.8,71.7z"/>
		<path fill="#F0F2F5" d="M66.8,71.7c2,0,3.3-1.3,3.3-3.3v-3.3h-6.7v3.3C63.4,70.4,64.8,71.7,66.8,71.7z"/>
		<path fill="#F0F2F5" d="M46.8,71.7c2,0,3.3-1.3,3.3-3.3v-3.3h-6.7v3.3C43.4,70.4,44.8,71.7,46.8,71.7z"/>
		<path fill="#F0F2F5" d="M36.8,71.7c2,0,3.3-1.3,3.3-3.3v-3.3h-6.7v3.3C33.4,70.4,34.8,71.7,36.8,71.7z"/>
		<path fill="#F0F2F5" d="M26.8,71.7c2,0,3.3-1.3,3.3-3.3v-3.3h-6.7v3.3C23.4,70.4,24.8,71.7,26.8,71.7z"/>
		<path fill="#F0F2F5" d="M73.4,31.8H20.1c-2,0-3.3,1.3-3.3,3.3v23.3c0,2,1.3,3.3,3.3,3.3h53.3c2,0,3.3-1.3,3.3-3.3V35.1
			C76.8,33.1,75.4,31.8,73.4,31.8z M73.4,53.4c-3.7,0-6.7-3-6.7-6.7s3-6.7,6.7-6.7V53.4z"/>
	</g>
</g>
</svg>
