<?xml version="1.0" encoding="utf-8"?>
<!-- Generator: Adobe Illustrator 19.1.0, SVG Export Plug-In . SVG Version: 6.00 Build 0)  -->
<svg version="1.2" baseProfile="tiny" id="Layer_1" xmlns="http://www.w3.org/2000/svg" xmlns:xlink="http://www.w3.org/1999/xlink"
	 x="0px" y="0px" viewBox="0 0 93.5 93.5" xml:space="preserve">
<g>
	<circle fill="#3F4040" cx="46.8" cy="46.8" r="46.8"/>
	<g>
		<g>
			<path fill="#F0F2F5" d="M28.2,32.3h-8.9c-1.4,0-2.5,1.1-2.5,2.5v35.2c0,1.4,1.1,2.5,2.5,2.5h8.9C28.2,72.6,28.2,32.3,28.2,32.3z"
				/>
			<path fill="#F0F2F5" d="M74.2,32.3h-8.9v40.3h8.9c1.4,0,2.5-1.1,2.5-2.5V34.9C76.7,33.5,75.6,32.3,74.2,32.3z"/>
			<g>
				<circle fill="#F0F2F5" cx="41.1" cy="41.2" r="1.2"/>
				<path fill="#F0F2F5" d="M31.5,32.3v40.3H62V32.3H31.5z M48,55.6L36.5,44.1l1.3-6.2l6.2-1.3l11.5,11.5L48,55.6z"/>
			</g>
		</g>
		<path fill="#F0F2F5" d="M37,30.7V28c0-1.4,1.1-2.5,2.5-2.5H54c1.4,0,2.5,1.1,2.5,2.5v2.7h4.6V28c0-3.9-3.2-7.1-7.1-7.1H39.5
			c-3.9,0-7.1,3.2-7.1,7.1v2.7H37z"/>
	</g>
</g>
</svg>
